<svg width="417" height="117" viewBox="0 0 417 117" fill="none" xmlns="http://www.w3.org/2000/svg">
<g filter="url(#filter0_d)">
<path fill-rule="evenodd" clip-rule="evenodd" d="M100.205 78.5902C100.716 78.282 101.207 77.9485 101.668 77.5862C101.56 77.8454 101.423 78.1421 101.256 78.4744C100.983 79.0166 100.715 79.4976 100.452 79.9694C100.292 80.255 100.135 80.5372 99.9794 80.8276C99.3144 82.0705 99.3058 83.3428 99.3253 84.1971C99.0218 84.4182 98.7296 84.7125 98.4792 85.1103C98.3539 85.3093 98.2266 85.499 98.0961 85.6845C97.3996 86.1897 96.5459 86.6663 95.5645 87.179C95.3502 87.2909 95.1275 87.4056 94.8998 87.523L94.8991 87.5233C93.9617 88.0063 92.937 88.5342 92.0427 89.1013C89.5224 90.6992 87.1226 92.4634 84.7861 94.181C84.1865 94.6218 83.5911 95.0595 82.9989 95.4906C82.8893 95.5703 82.7811 95.6513 82.6741 95.7333L82.8026 95.5984L82.9706 95.4216L82.9706 95.4215C83.9032 94.4397 84.6498 93.6536 85.6295 93.0241C88.3768 91.2591 91.1792 89.1059 93.5366 86.9028C94.3921 86.1034 95.217 85.2765 96.0121 84.4795L96.0127 84.4789L96.0204 84.4712C96.8265 83.6632 97.6021 82.886 98.3952 82.1448C99.0056 81.5744 99.3957 80.8312 99.6572 80.2101C99.8766 79.6888 100.055 79.1298 100.205 78.5902ZM99.4397 42.2944C99.8847 43.3079 100.377 44.2914 100.863 45.2342C100.62 45.5176 100.454 45.8721 100.401 46.2696C100.053 48.8644 100.082 51.4851 100.109 53.935L100.113 54.2981C100.116 54.6053 100.119 54.9099 100.121 55.212C99.9801 54.87 99.8379 54.5279 99.6943 54.1858C99.7252 53.9384 99.7542 53.6893 99.7815 53.4417C100.052 50.989 100.197 48.1997 100.183 47.4678C100.151 45.8839 99.8752 44.2692 99.4586 42.6813C99.454 42.553 99.4477 42.4239 99.4397 42.2944ZM53.096 100.525C53.5898 100.629 54.083 100.724 54.5755 100.808C54.0827 100.597 53.5669 100.495 53.096 100.525ZM59.9604 101.304C61.7238 101.313 63.4848 101.162 65.2486 100.82C64.6014 100.772 63.9998 100.709 63.6661 100.636L63.6061 100.623C63.3742 100.601 63.1408 100.578 62.9071 100.554C62.751 100.627 62.6079 100.671 62.4986 100.697C62.1725 100.774 61.8984 100.755 61.7655 100.741C61.2981 100.693 60.8169 100.491 60.4931 100.348C60.424 100.318 60.3543 100.288 60.2843 100.258C60.0604 100.23 59.8409 100.203 59.6269 100.175C59.7465 100.451 59.8191 100.705 59.868 100.897C59.9046 101.04 59.9353 101.182 59.9604 101.304ZM82.3021 101.502C82.7388 101.061 83.1544 100.641 83.568 100.246C83.9598 100.106 84.4019 100.022 85.0264 99.9026C85.1583 99.8775 85.2983 99.8507 85.4477 99.8216C86.4864 99.6192 87.8289 99.3083 89.1574 98.3426C90.4152 97.4284 92.0892 96.4231 93.4619 95.853C94.1037 95.5864 95.0543 95.1734 95.9414 94.6375C96.7508 94.1485 97.869 93.3498 98.4285 92.1733C98.8133 91.3641 99.2991 90.6834 99.8961 89.9146C99.9985 89.7828 100.106 89.6459 100.218 89.504C100.462 89.194 100.725 88.8601 100.991 88.5029L100.992 88.5027C101.591 88.015 102.11 87.453 102.561 86.8411C102.712 86.6868 102.86 86.4964 102.987 86.2612C103.022 86.1957 103.054 86.13 103.082 86.0641C104.167 84.292 104.787 82.2212 105.211 80.3442C105.344 79.7569 105.462 79.1661 105.57 78.5843C105.73 78.1361 105.859 77.6745 105.925 77.2242C105.931 77.2124 105.938 77.1977 105.948 77.1798C106.012 77.0603 106.11 76.9097 106.271 76.6746L106.331 76.5872L106.331 76.5871L106.331 76.587C106.466 76.3905 106.641 76.1359 106.794 75.8825C106.972 75.5891 107.188 75.1903 107.326 74.7282C107.533 74.0311 107.806 73.3722 108.121 72.6089L108.122 72.6088L108.122 72.6085L108.122 72.6081L108.123 72.6062C108.271 72.2478 108.429 71.8663 108.594 71.447C109.066 70.247 109.56 68.8107 109.618 67.2745C109.673 65.851 109.654 64.3774 109.637 62.9681V62.968V62.9676L109.636 62.965V62.9645C109.628 62.2904 109.62 61.6311 109.62 60.9991V60.9867V60.9742V60.9618V60.9494V60.937V60.9245V60.9121V60.8997V60.8873V60.8748V60.8624V60.85V60.8376V60.8251V60.8127V60.8003V60.7879V60.7754V60.763V60.7506V60.7382V60.7257V60.7133V60.7009V60.6884V60.676V60.6636V60.6512V60.6387V60.6263V60.6139V60.6015V60.589V60.5766V60.5642V60.5518V60.5393V60.5269V60.5145V60.5021V60.4896V60.4772V60.4648V60.4524V60.4399V60.4275V60.4151V60.4027V60.3902V60.3778V60.3654V60.3529V60.3405V60.3281V60.3157V60.3032V60.2908V60.2784V60.266V60.2535V60.2411V60.2287V60.2163V60.2038V60.1914V60.179V60.1666V60.1541V60.1417V60.1293V60.1169V60.1044V60.092V60.0796V60.0672V60.0547V60.0423V60.0299V60.0174V60.005V59.9926V59.9802V59.9677V59.9553V59.9429V59.9305V59.918V59.9056V59.8932V59.8808V59.8683V59.8559V59.8435V59.8311V59.8186V59.8062V59.7938V59.7814V59.7689V59.7565V59.7441V59.7316V59.7192V59.7068V59.6944V59.6819V59.6695V59.6571V59.6447V59.6322V59.6198V59.6074V59.595V59.5825V59.5701V59.5577V59.5453V59.5328V59.5204V59.508V59.4956V59.4831V59.4707V59.4583V59.4459V59.4334V59.421V59.4086V59.3961V59.3837V59.3713V59.3589V59.3464V59.334V59.3216V59.3092V59.2967V59.2843V59.2719V59.2595V59.247V59.2346V59.2222V59.2098V59.1973V59.1849V59.1725V59.1601V59.1476V59.1352V59.1228V59.1103V59.0979V59.0855V59.0731V59.0606V59.0482V59.0358V59.0234V59.0109V58.9985V58.9861V58.9737V58.9612V58.9488V58.9364V58.924V58.9115V58.8991V58.8867V58.8743V58.8618V58.8494V58.837V58.8246V58.8121V58.7997V58.7873V58.7748V58.7624V58.75V58.7376V58.7251V58.7127V58.7003V58.6879V58.6754V58.663V58.6506V58.6382V58.6257V58.6133V58.6009V58.5885V58.576V58.5636V58.5512V58.5388V58.5263V58.5139V58.5015V58.489V58.4766V58.4642V58.4518V58.4393V58.4269V58.4145V58.4021V58.3896V58.3772V58.3648V58.3524V58.3399V58.3275V58.3151V58.3027V58.2902V58.2778V58.2654V58.253V58.2405V58.2281V58.2157V58.2033V58.1908V58.1784V58.166V58.1535V58.1411V58.1287V58.1163V58.1038V58.0914V58.079V58.0666V58.0541V58.0417V58.0293V58.0169V58.0044V57.992V57.9796V57.9672V57.9547V57.9423V57.9299V57.9175V57.905V57.8926V57.8802V57.8677V57.8553V57.8429V57.8305V57.818V57.8056V57.7932V57.7808V57.7683V57.7559V57.7435V57.7311V57.7186V57.7062V57.6938V57.6814V57.6689V57.6565V57.6441V57.6317V57.6192V57.6068V57.5944V57.582V57.5695V57.5571V57.5447V57.5322V57.5198V57.5074V57.495V57.4825V57.4701V57.4577V57.4453V57.4328V57.4204V57.408V57.3956V57.3831V57.3707V57.3583V57.3459V57.3334V57.321V57.3086V57.2962V57.2837V57.2713V57.2589V57.2464V57.234V57.2216V57.2092V57.1967V57.1843V57.1719V57.1595V57.147V57.1346V57.1222V57.1098V57.0973V57.0849V57.0725V57.0601V57.0476V57.0352V57.0228V57.0104V56.9979V56.9855V56.9731V56.9607V56.9482V56.9358V56.9234V56.9109V56.8985V56.8861V56.8737V56.8612V56.8488V56.8364V56.824V56.8115V56.7991V56.7867V56.7743V56.7618V56.7494V56.737V56.7246V56.7121V56.6997V56.6873V56.6749V56.6624V56.65V56.6376V56.6251V56.6127V56.6003V56.5879V56.5754V56.563V56.5506V56.5382V56.5257V56.5133V56.5009V56.4885V56.476V56.4636V56.4512V56.4388V56.4263V56.4139V56.4015V56.3891V56.3766V56.3642V56.3518V56.3394V56.3269V56.3145V56.3021V56.2896V56.2772V56.2648V56.2524V56.2399V56.2275V56.2151V56.2027V56.1902V56.1778V56.1654V56.153V56.1405V56.1281V56.1157V56.1033V56.0908V56.0784V56.066V56.0536V56.0411V56.0287V56.0163V56.0038V55.9914V55.979V55.9666V55.9541V55.9417V55.9293V55.9169V55.9044V55.892V55.8796V55.8672V55.8547V55.8423V55.8299V55.8175V55.805V55.7926V55.7802V55.7678V55.7553V55.7429V55.7305V55.7181V55.7056V55.6932V55.6808V55.6683V55.6559V55.6435V55.6311V55.6186V55.6062V55.5938V55.5814V55.5689V55.5565V55.5441V55.5317V55.5192V55.5068V55.4944V55.482V55.4695V55.4571V55.4447V55.4323V55.4198V55.4074V55.395V55.3825V55.3701V55.3577V55.3453V55.3328V55.3204V55.308V55.2956V55.2831V55.2707V55.2583V55.2459V55.2334V55.221V55.2086V55.1962V55.1837V55.1713V55.1589V55.1465V55.134V55.1216V55.1092V55.0967V55.0843V55.0719V55.0595V55.047V55.0346V55.0222V55.0098V54.9973V54.9849V54.9725V54.9601V54.9476V54.9352V54.9228V54.9104V54.8979V54.8855V54.8731V54.8607V54.8482V54.8358V54.8234V54.811V54.7985V54.7861V54.7737V54.7612V54.7488V54.7364V54.724V54.7115V54.6991V54.6867V54.6743V54.6618V54.6494V54.637V54.6118V54.5866V54.5615V54.5363V54.5111V54.486V54.4608V54.4356V54.4105V54.3853V54.3601V54.3349V54.3098V54.2846V54.2594V54.2343V54.2091V54.1839V54.1587V54.1336V54.1084V54.0832V54.0581V54.0329V54.0077V53.9826V53.9574V53.9322V53.907V53.8819V53.8567V53.8315V53.8064V53.7812V53.756V53.7308V53.7057V53.6805V53.6553V53.6302V53.605V53.5798V53.5546V53.5295V53.5043V53.4791V53.454V53.4288V53.4036V53.3785V53.3533V53.3281V53.3029V53.2778V53.2526V53.2274V53.2023V53.1771V53.1519V53.1268V53.1016V53.0764V53.0512V53.0261V53.0009V52.9757V52.9506V52.9254V52.9002V52.875V52.8499V52.8247V52.7995V52.7744V52.7492V52.724V52.6988V52.6737V52.6485V52.6233V52.5982V52.573V52.5478V52.5227V52.4975V52.4723V52.4471V52.422V52.3968V52.3716V52.3465V52.3213V52.2961V52.271V52.2458V52.2206V52.1954V52.1703V52.1451V52.1199V52.0948V52.0696V52.0444V52.0192V51.9941V51.9689V51.9437V51.9186V51.8934V51.8682V51.843V51.8179V51.7927V51.7675V51.7424V51.7172V51.692V51.6669V51.6417V51.6165V51.5913V51.5662V51.541V51.5158V51.4907V51.4655V51.4403V51.4151V51.39V51.3648V51.3396V51.3145V51.2893V51.2641V51.239V51.2138V51.1886V51.1634V51.1383V51.1131V51.0879V51.0628V51.0376V51.0124V50.9872V50.9621V50.9369V50.9117V50.8866V50.8614V50.8362V50.8111V50.7859V50.7607V50.7355V50.7104V50.6852V50.66V50.6349V50.6097V50.5845V50.5593V50.5342V50.509V50.4838V50.4587V50.4335V50.4083V50.3832V50.358V50.3328V50.3076V50.2825V50.2573V50.2321V50.207V50.1818V50.1566V50.1314V50.1063V50.0811V50.0559V50.0308V50.0056V49.9804V49.9552V49.9301V49.9049V49.8797V49.8546V49.8294V49.8042V49.7791V49.7539V49.7287V49.7035V49.6784V49.6532V49.628V49.6029V49.5777V49.5525V49.5274V49.5022V49.477V49.4518V49.4267V49.4015V49.3763V49.3512V49.326V49.3008V49.2756V49.2505V49.2253V49.2001V49.175V49.1498V49.1246V49.0994V49.0743V49.0491V49.0239V48.9988V48.9736V48.9484V48.9233V48.8981V48.8729V48.8477V48.8226V48.7974V48.7722V48.7471V48.7219V48.6967V48.6715V48.6464V48.6212V48.596V48.5709V48.5457V48.5205V48.4954V48.4702V48.445V48.4198V48.3947V48.3695V48.3443V48.3192V48.294V48.2688V48.2436V48.2185V48.1933V48.1681V48.143V48.1178V48.0926V48.0675V48.0423V48.0171V47.9919V47.9668V47.9416V47.9164V47.8913V47.8661V47.8409V47.8157V47.7906V47.7654V47.7402V47.7151V47.6899V47.6647V47.6396V47.6144V47.5892V47.564V47.5389V47.5137V47.4885V47.4634V47.4382V47.413V47.3878V47.3627V47.3375V47.3123V47.2872V47.262V47.2368V47.2117V47.1865V47.1613V47.1361V47.111V47.0858V47.0606V47.0355V47.0103V46.9851V46.9599V46.9348V46.9096V46.8844V46.8593V46.8341V46.8089V46.7838V46.7586V46.7334V46.7082V46.6831V46.6579V46.6327V46.6076V46.5824V46.5572V46.532V46.5069V46.4817V46.4565V46.4314V46.4062V46.381V46.3559V46.3307V46.3055V46.2803V46.2552V46.23V46.2048V46.1797V46.1545V46.1293V46.1041V46.079V46.0538V46.0286V46.0035V45.9783V45.9531V45.9279V45.9028V45.8776V45.8524V45.8273V45.8021V45.7769V45.7518V45.7266V45.7014V45.6762V45.6511V45.6259V45.6007V45.5756V45.5504V45.5252V45.5V45.4749V45.4497V45.4245V45.3994V45.3742V45.349V45.3239V45.2987V45.2735V45.2483V45.2232V45.198V45.1728V45.1477V45.1225V45.0973V45.0721V45.047V45.0218V44.9966V44.9715V44.9463V44.9211V44.896V44.8708V44.8456V44.8204V44.7953V44.7701V44.7449V44.7198V44.6946V44.6694V44.6442V44.6191V44.5939V44.5687V44.5436V44.5184V44.4932V44.4681V44.4429V44.4177V44.3925V44.3674V44.3422V44.317V44.2919V44.2667V44.2415V44.2163V44.1912V44.166V44.1408V44.1157V44.0905V44.0653V44.0402V44.015V43.9898V43.9646V43.9395V43.9143V43.8891V43.864V43.8388V43.8136V43.7884V43.7633V43.7381V43.7129V43.6878V43.6626V43.6374V43.6123V43.5871V43.5619V43.5367V43.5116V43.4864V43.4612V43.4361V43.4109V43.3857V43.3605V43.3354V43.3102V43.285V43.2599V43.2347V43.2095V43.1844V43.1592V43.134V43.1088V43.0837V43.0585V43.0333V43.0082V42.983V42.9578V42.9326V42.9075V42.8823V42.8571V42.832V42.8068V42.7816V42.7565V42.7313V42.7061V42.6809V42.6558V42.6306V42.6054V42.5803V42.5551V42.5299V42.5047V42.4796V42.4544V42.4292V42.4041V42.3789V42.3537V42.3285V42.3034V42.2782V42.253V42.2279V42.2027V42.1775V42.1524V42.1272V42.102V42.0768V42.0517V42.0265V42.0013V41.9762V41.951V41.9258V41.9007V41.8755V41.8503V41.8251V41.8V41.7748V41.7496C109.62 41.6317 109.62 41.5146 109.62 41.3982L109.62 41.39C109.622 40.3162 109.625 39.3081 109.444 38.3666C109.22 37.2048 108.747 36.2157 107.958 35.0697C106.737 33.2937 105.183 31.8676 103.8 30.6042L103.729 30.5393L103.62 30.4404C103.354 29.9274 103.08 29.426 102.799 28.9376C101.828 27.2454 100.348 25.9904 98.9237 24.9725C98.718 24.6223 98.514 24.2626 98.3025 23.8895L98.3019 23.8884C98.0927 23.5195 97.8762 23.1375 97.6434 22.7391C96.7968 21.2899 95.7824 19.7207 94.2823 18.3926C88.2568 13.058 81.8116 8.80444 74.4268 5.35386C73.6781 5.004 72.9291 4.63968 72.1752 4.27297C67.8637 2.17569 63.3909 0 57.8696 0C57.535 0 57.2197 0.0821467 56.9425 0.22737C50.7514 -0.205743 43.5823 -0.0488361 37.7367 0.947471C35.2747 1.36709 33.2156 3.23132 31.6858 4.78679C31.1711 5.31025 30.6434 5.87863 30.1528 6.40709L30.1527 6.40728L30.1526 6.40733C29.8935 6.6865 29.6446 6.95453 29.4135 7.19891C28.6981 7.95542 28.0972 8.5465 27.5671 8.95095C27.2573 9.1873 26.9403 9.41342 26.6163 9.63148C25.6526 9.87623 24.6867 10.1524 23.7412 10.481C22.8078 10.8054 21.9726 11.4663 21.3134 12.0868C21.0206 12.3623 20.7314 12.6601 20.4493 12.9701C18.8375 13.7733 17.1572 14.6488 15.5789 15.7173C11.5061 18.4747 9.79514 22.7694 8.98359 26.9515C8.88605 27.4541 8.80028 27.9649 8.72431 28.48C5.30252 33.2264 5.02219 38.7445 5.0289 43.8653C4.35063 48.7705 4 53.6906 4 58.8232C4 61.4102 4.34801 63.9959 4.70699 66.4535C4.74675 66.7258 4.78661 66.9962 4.82623 67.2651L4.82651 67.267C5.151 69.4688 5.45944 71.5617 5.56983 73.6335C5.62733 74.7126 6.16699 76.5494 6.78799 78.0692C7.11282 78.8642 7.50576 79.6874 7.9473 80.3787C8.16809 80.7244 8.42756 81.0792 8.72764 81.3909C9.01261 81.6869 9.43436 82.0496 9.9982 82.2613C10.3677 82.3999 10.7875 82.7955 11.4486 83.7901C11.549 83.9412 11.6603 84.1164 11.7817 84.3075C12.2929 85.112 12.9839 86.1993 13.8013 86.9664C16.4049 89.4094 19.1782 91.5486 22.1484 93.6271C23.1787 94.3482 24.242 95.1332 25.3578 95.957L25.8784 96.3412C27.1752 97.2976 28.5341 98.2916 29.9289 99.2391C32.7027 101.123 35.7276 102.901 38.8903 103.89C42.3261 104.965 45.9093 105.143 49.2252 105.308L49.2866 105.311C52.7063 105.48 55.8661 105.642 58.8814 106.54C62.4683 107.608 65.6009 108.346 68.6965 108.239C71.8652 108.129 74.8338 107.144 78.1561 105.066C79.695 104.103 80.9555 102.858 82.0605 101.745L82.3021 101.502ZM95.1788 74.7685C94.9966 75.0417 94.8187 75.3135 94.6448 75.58L94.5066 75.792C94.2064 76.2528 93.9175 76.6962 93.6236 77.1284C92.2835 77.5783 90.8888 77.9656 89.4533 78.2986C89.1604 78.2939 88.8635 78.2824 88.5632 78.2655C88.7729 78.035 88.9824 77.802 89.1909 77.5669C89.716 77.1359 90.151 76.6329 90.5105 76.0894C91.2428 75.9439 91.9693 75.7754 92.6847 75.5806C93.526 75.3514 94.361 75.083 95.1788 74.7685ZM91.0268 24.1486C90.9929 24.1156 90.9592 24.0825 90.9257 24.0492L90.9905 24.1502L90.996 24.1499L91.0268 24.1486ZM94.0709 29.6103C94.3305 30.1361 94.5845 30.6706 94.8331 31.2141C95.0065 31.5934 95.189 31.9874 95.3778 32.3937C96.283 34.0698 97.1045 35.7588 97.93 37.4689C97.854 36.9324 97.8115 36.2734 97.7719 35.6608L97.7719 35.6605L97.7627 35.5189L97.7531 35.3727C97.6964 34.5182 97.6295 33.6463 97.4966 32.8337C97.3606 32.0022 97.1765 31.3748 96.9571 30.9624C96.7587 30.5895 96.6291 30.5616 96.614 30.5584L96.6129 30.5581C95.7168 30.3201 94.8548 29.9658 94.0709 29.6103ZM88.1382 82.6641C86.1433 84.5483 84.2615 86.6689 82.4392 88.7225L82.4387 88.7231L82.4134 88.7516C82.2367 88.9506 82.0607 89.149 81.8851 89.3465C83.3775 87.2819 84.7834 85.1989 86.0337 83.035C86.7399 82.9216 87.4418 82.7982 88.1382 82.6641ZM69.2687 17.829C68.7127 17.8061 68.1583 17.787 67.6063 17.7711C67.4918 17.8147 67.3707 17.8531 67.2425 17.8858C67.1671 17.8544 67.092 17.8222 67.017 17.7892C66.9493 17.8199 66.8846 17.8448 66.8248 17.8649C66.6773 17.9145 66.5368 17.9428 66.4108 17.9581C67.4989 18.011 68.5801 18.1279 69.6463 18.3178C69.52 18.1562 69.3941 17.9933 69.2687 17.829ZM60.3882 7.07429C59.6597 6.90338 58.8512 6.80726 57.9597 6.74076C58.5978 7.11096 59.2187 7.49051 59.8205 7.87266C60.2654 8.15519 60.7136 8.4669 61.16 8.79427C62.6868 9.27345 64.0229 10.0436 65.2462 10.9502C64.7987 9.9835 64.3601 9.06062 63.8733 8.20648C62.7299 7.7409 61.5729 7.35219 60.3882 7.07429ZM75.8326 56.7919C75.896 56.8767 75.9594 56.9615 76.0227 57.0463C75.9564 57.0854 75.8939 57.1272 75.8353 57.1705C75.7795 56.9872 75.7229 56.8037 75.6655 56.6198C75.6775 56.6332 75.6894 56.6462 75.7015 56.6589C75.7446 56.7044 75.7883 56.7487 75.8326 56.7919ZM46.0537 30.4317C45.7754 30.5727 45.5036 30.7204 45.2381 30.8746C45.285 30.5022 45.3391 30.1243 45.4026 29.7457L45.427 29.7639C45.62 29.9085 45.8119 30.0544 46.0026 30.2017C46.0194 30.2783 46.0365 30.355 46.0537 30.4317ZM42.6486 18.7285C42.6857 18.7926 42.7228 18.8567 42.7599 18.9208L42.7004 18.9939C42.4508 19.3005 42.1907 19.6188 41.9053 19.9572L41.7412 20.1512C41.6739 20.2308 41.6046 20.3128 41.5336 20.397C41.4094 19.8888 41.2875 19.3818 41.1687 18.8759C41.6613 18.817 42.1547 18.768 42.6486 18.7285ZM68.6965 49.4403C68.5926 49.2836 68.4893 49.1279 68.3869 48.9737C67.9633 47.9935 67.4725 47.0734 66.9168 46.2129C66.9561 46.1302 66.9951 46.0472 67.0339 45.964C67.0481 45.9792 67.0623 45.9945 67.0765 46.0097C67.6466 47.1434 68.1868 48.2889 68.6965 49.4403ZM81.557 64.3402C81.574 64.3608 81.5907 64.3808 81.6068 64.4002C81.6928 64.5032 81.8475 64.6877 81.9953 64.8261L81.9973 64.828C82.018 64.8474 82.0754 64.9012 82.1594 64.966C82.0389 65.0402 81.9171 65.1126 81.7942 65.1832C81.7215 64.9932 81.6622 64.8004 81.6146 64.6056C81.5933 64.5184 81.5741 64.43 81.557 64.3402ZM85.1618 62.4254C85.159 62.4198 85.1564 62.4147 85.1541 62.4104C85.0994 62.3052 85.0446 62.2 84.9896 62.0949C85.0363 62.0219 85.0779 61.9493 85.1148 61.8782C85.1315 61.8888 85.1482 61.8992 85.1649 61.9094L85.1901 61.9248C85.2527 61.9625 85.3447 62.016 85.4598 62.0707C85.3621 62.1913 85.2628 62.3095 85.1618 62.4254ZM53.6233 14.1285C53.901 14.0942 54.1791 14.0609 54.4584 14.0291C54.0726 13.9704 53.6893 13.9162 53.3087 13.8672C53.4139 13.9539 53.5188 14.041 53.6233 14.1285ZM49.2877 18.7964L49.4466 18.7734L49.304 18.7607C49.1876 18.7868 49.0783 18.8143 48.9753 18.8431C49.0793 18.827 49.1835 18.8114 49.2877 18.7964ZM65.2179 17.789C65.1598 17.7679 65.0977 17.744 65.0321 17.7175C64.1447 17.7053 63.2671 17.699 62.4029 17.6957C62.6519 17.789 62.9 17.8843 63.1473 17.9815C64.0091 17.9298 64.8716 17.9123 65.7308 17.9333C65.5047 17.8909 65.3155 17.8243 65.2179 17.789ZM93.8163 41.9146C94.3633 42.9058 94.8932 43.9046 95.4072 44.9092C95.4213 44.7007 95.4336 44.4927 95.4436 44.2849C95.4612 43.9167 95.4695 43.5718 95.468 43.2506C95.2843 42.5993 95.0702 41.9361 94.8318 41.2639C94.7494 41.3857 94.6619 41.5002 94.5793 41.5874C94.3967 41.7129 94.1118 41.8293 93.8163 41.9146ZM42.2833 92.5455C42.3796 92.5455 42.4752 92.5471 42.5702 92.5501C38.0244 91.0223 33.8597 88.5621 30.7175 84.7841C30.2289 84.6034 29.7456 84.4126 29.2682 84.2111C29.7441 84.8845 30.2918 85.5355 30.9194 86.1633C33.457 88.7017 37.0887 90.9255 40.898 92.4976C41.3667 92.5286 41.8295 92.5455 42.2833 92.5455ZM85.0714 72.3604C84.814 72.5273 84.5478 72.6897 84.2727 72.8473C84.9149 72.8053 85.5584 72.7525 86.1996 72.6867L86.2267 72.5912C85.8417 72.5301 85.4552 72.454 85.0714 72.3604ZM38.3403 31.5813C38.1865 31.9624 38.0476 32.3531 37.9224 32.7526C38.1396 32.8361 38.3566 32.9208 38.5732 33.0067C38.6225 32.533 38.6761 32.0335 38.7406 31.5288C38.689 31.4903 38.6369 31.4516 38.5844 31.4127C38.5029 31.4686 38.4215 31.5248 38.3403 31.5813ZM14.9483 36.8085C14.7125 37.2446 14.4862 37.6942 14.2688 38.1616C14.2479 38.3348 14.2273 38.5088 14.2072 38.6833C14.4312 38.0584 14.6773 37.4264 14.9483 36.8085ZM16.9884 70.6209C16.9836 70.7557 16.979 70.8899 16.9745 71.0236C17.3172 71.3839 17.6692 71.7379 18.03 72.0858C18.4951 72.3125 18.9805 72.5326 19.4868 72.746C20.4659 73.1586 21.4529 73.5485 22.4474 73.9189C22.4473 73.7663 22.4481 73.6138 22.4499 73.4612C22.0259 72.5198 21.656 71.567 21.3475 70.6104C21.1447 70.5654 20.941 70.5162 20.737 70.462C20.5668 70.8276 20.2064 71.3377 19.4937 71.5633C18.7005 71.8143 18.0674 71.5082 17.8658 71.3983C17.6149 71.2614 17.4341 71.0989 17.337 71.0058C17.2136 70.8874 17.0966 70.7548 16.9884 70.6209ZM23.4039 81.1535C21.2056 79.8254 19.1245 78.3526 17.2065 76.7275C17.3278 77.4006 17.4967 78.0397 17.727 78.6441C18.2748 80.0821 19.5514 81.4514 21.3422 82.9075C22.1507 83.5648 23.0046 84.1945 23.8814 84.8411L24.1043 85.0055C24.6944 85.441 25.2971 85.888 25.8765 86.3434C24.7325 84.6853 23.9379 82.9432 23.4039 81.1535ZM16.715 44.1856C16.7063 44.1825 16.6976 44.1794 16.6889 44.1764C16.6935 44.161 16.698 44.1454 16.7026 44.1299C16.7067 44.1485 16.7108 44.1671 16.715 44.1856ZM13.2333 61.4083C13.2823 61.7069 13.3365 62.0059 13.396 62.3047C12.9179 61.8432 12.5254 61.3576 12.23 60.8458C10.1198 57.1903 9.33398 53.837 9.11501 49.8742C9.21126 49.3584 9.34508 48.8773 9.5194 48.4372C9.60927 50.2691 9.89829 52.0915 10.4933 53.8356C10.4889 55.3826 10.7206 56.9538 11.3639 58.4259C11.8288 59.49 12.4881 60.4898 13.2333 61.4083ZM13.9891 80.0682C13.2003 77.998 12.978 75.8161 12.9402 73.7643C11.5729 72.8382 10.3715 71.8187 9.3306 70.702C9.43308 71.6054 9.51587 72.5142 9.56417 73.4206C9.58502 73.812 9.91372 75.1439 10.4908 76.5562C10.765 77.2273 11.0536 77.811 11.3184 78.2257C11.4322 78.4038 11.522 78.5197 11.5821 78.5872C12.9187 79.1484 13.825 80.2106 14.4616 81.1102C14.2844 80.7741 14.1257 80.4269 13.9891 80.0682ZM16.5384 84.0495C16.215 83.746 15.9485 83.3746 15.6279 82.8842C16.5724 84.0798 17.712 85.1112 18.8188 86.0111C19.7046 86.7313 20.6334 87.4161 21.4962 88.0523L21.7292 88.2241C22.6767 88.9232 23.5272 89.5585 24.2535 90.1827C24.33 90.2484 24.4062 90.3135 24.4819 90.378L24.4417 90.3498C21.5675 88.3385 18.9578 86.3197 16.5384 84.0495ZM30.7245 44.6434C30.7438 44.8378 30.7631 45.0322 30.7824 45.2266C30.6891 45.0136 30.596 44.8005 30.5031 44.5872C30.577 44.6057 30.6508 44.6245 30.7245 44.6434ZM29.9517 40.1091C29.8803 40.176 29.8097 40.2441 29.7398 40.3135C29.8328 40.3324 29.9257 40.3516 30.0187 40.3712C29.9963 40.2839 29.9739 40.1965 29.9517 40.1091ZM36.674 68.8924C37.0511 68.8099 37.4334 68.7162 37.8204 68.6123C37.4213 68.1214 37.0138 67.6349 36.5977 67.1522C36.6 67.2576 36.6021 67.363 36.604 67.4683C36.6113 67.8669 36.6386 68.3121 36.6706 68.8358L36.674 68.8924ZM34.4636 41.5362C34.6059 41.4147 34.7499 41.295 34.8954 41.1772L34.8642 41.1763C34.7036 41.1705 34.5481 41.1459 34.3997 41.1047C34.4092 41.2051 34.4188 41.3055 34.4284 41.4059C34.4401 41.4493 34.4519 41.4928 34.4636 41.5362ZM37.8588 37.5587C37.9693 37.8037 38.0802 38.0479 38.1918 38.2913C38.2009 38.0581 38.2111 37.8249 38.2224 37.5914C38.0999 37.5789 37.9788 37.568 37.8588 37.5587ZM59.6283 27.7982C59.5949 27.9151 59.5609 28.0316 59.5263 28.1476C59.6789 28.3052 59.8306 28.4639 59.9816 28.6239C60.7524 28.7418 61.5181 28.8879 62.2771 29.0576C61.4086 28.6085 60.5261 28.1877 59.6283 27.7982ZM58.0241 32.408C57.9638 32.5674 57.9041 32.7257 57.8453 32.8828C58.0667 32.9073 58.2879 32.9333 58.5089 32.961C58.3484 32.7751 58.1867 32.5908 58.0241 32.408ZM43.0842 87.4755C43.7649 87.7353 44.4856 87.9863 45.2114 88.1908C46.1058 88.4427 46.9201 88.597 47.5992 88.6215C47.9358 88.6337 48.1969 88.6125 48.3964 88.5756C48.3387 88.3382 48.2783 88.104 48.2161 87.8747C46.5166 87.785 44.799 87.6584 43.0842 87.4755ZM33.1028 81.3412C35.5603 81.9677 38.0218 82.5444 40.47 83.1091C37.9323 82.7222 35.4703 82.1768 33.1475 81.4019L33.1028 81.3412ZM71.7281 80.2247C72.3966 80.207 73.0676 80.1854 73.7398 80.159C73.799 79.9385 73.8547 79.7157 73.907 79.4908C73.2972 79.2997 72.6898 79.1003 72.0851 78.8932C72.0363 79.131 71.9803 79.3679 71.9166 79.6035C71.8595 79.8148 71.7966 80.0219 71.7281 80.2247ZM67.2717 80.2913C67.6205 79.7612 67.8868 79.1828 68.0551 78.5602C68.0994 78.396 68.1385 78.2293 68.1725 78.0602C67.076 78.3448 65.9188 78.4425 64.7598 78.4245C64.2795 78.786 63.7763 79.0915 63.2483 79.3381C63.5733 79.5126 63.8511 79.6769 64.0666 79.8043L64.1813 79.8721C64.4265 80.0163 64.5595 80.0886 64.6769 80.1397C64.83 80.2065 65.0728 80.2949 65.8072 80.2949C66.2923 80.2949 66.7806 80.2938 67.2717 80.2913ZM65.1229 34.2834C65.1455 34.2545 65.1692 34.2256 65.1942 34.1969C65.2345 34.1507 65.2754 34.1075 65.3168 34.067C64.9564 33.9461 64.5958 33.8299 64.2351 33.7188C64.335 33.8533 64.4344 33.9883 64.5333 34.1238C64.7302 34.1757 64.9268 34.2289 65.1229 34.2834ZM62.5425 83.542C62.4011 83.465 62.2709 83.389 62.1532 83.3198L62.0153 83.2385C61.8001 83.1113 61.599 82.9925 61.3508 82.8594C61.3713 82.8703 61.3688 82.8699 61.3371 82.8645C61.2548 82.8504 60.9746 82.8024 60.3837 82.8321C60.3577 82.8334 60.3314 82.8348 60.3049 82.8364C60.5407 83.0018 60.7797 83.1615 61.0221 83.3153C61.5294 83.3945 62.0362 83.4702 62.5425 83.542ZM41.2735 78.0864C41.5404 78.2381 41.8077 78.3903 42.0753 78.5432C43.0737 79.1134 44.0305 79.5097 45.0043 79.7769C44.7737 79.3084 44.5379 78.8452 44.2969 78.387L44.2087 78.3802C43.1912 78.3017 42.2154 78.2087 41.2735 78.0864ZM48.8863 78.6142C49.1459 79.1563 49.3993 79.7052 49.6465 80.2613C50.3332 80.2514 51.0567 80.2194 51.8293 80.1748C51.4031 79.6506 50.9922 79.1214 50.5952 78.5919C50.0234 78.613 49.4525 78.6192 48.8863 78.6142ZM61.8205 61.9917C61.6677 61.8086 61.5131 61.6256 61.357 61.4431L61.2157 61.5179L61.0261 61.6184C61.111 61.7556 61.1967 61.8922 61.2834 62.0282C61.4649 62.0191 61.644 62.0069 61.8205 61.9917ZM50.6876 51.3413L50.689 51.3103C50.6902 51.285 50.6912 51.2597 50.6921 51.2345C50.6938 51.1895 50.6952 51.1444 50.6964 51.0993C50.0794 50.5883 49.4472 50.0869 48.8016 49.6052L48.7665 49.579C48.7108 49.5376 48.6551 49.4963 48.5994 49.4553C49.3213 50.0622 50.0183 50.6914 50.6876 51.3413ZM45.8015 43.0962C47.143 43.7182 48.4361 44.4815 49.6609 45.3088C49.3227 44.3836 48.9082 43.4604 48.4269 42.5462C47.5308 41.9795 46.6245 41.4322 45.709 40.9061C45.7033 40.9066 45.6976 40.9071 45.6919 40.9076C45.7398 41.5905 45.7806 42.3378 45.8015 43.0962ZM49.3041 56.1943C49.3628 56.0791 49.4198 55.9634 49.4752 55.8472C48.7314 55.0181 47.9357 54.2188 47.0951 53.4531C47.6278 54.3755 48.2936 55.3182 49.0643 56.2251C49.1069 56.2199 49.1495 56.2145 49.1919 56.2091C49.2294 56.2042 49.2668 56.1993 49.3041 56.1943ZM49.1336 68.2822C50.6371 68.8584 52.1626 69.3965 53.7085 69.9018C52.9152 69.3901 52.1166 68.8512 51.3246 68.2832C50.8875 68.135 50.4529 67.9806 50.021 67.8198C49.727 67.9748 49.4311 68.1291 49.1336 68.2822ZM11.6383 78.6444C11.6383 78.6445 11.638 78.6443 11.6373 78.6438L11.6348 78.6416L11.629 78.6363C11.6352 78.6413 11.6383 78.6442 11.6383 78.6444Z" fill="black"/>
<rect x="23.1769" y="35.3291" width="68.2591" height="38.8054" rx="4.5" stroke="white" stroke-width="3"/>
<rect x="23.1769" y="79.0347" width="68.2591" height="7.45134" rx="3.72567" stroke="white" stroke-width="3"/>
<path d="M81.0595 35.2541L88.2053 18.5452" stroke="white" stroke-width="3"/>
<path d="M34.0286 35.2542L25.3887 18.5453" stroke="white" stroke-width="3"/>
<ellipse cx="40.6793" cy="53.7515" rx="3.80049" ry="6.17579" fill="white"/>
<path d="M64.4324 60.9073C64.4324 62.2933 63.7317 63.6224 62.4844 64.6024C61.2371 65.5824 59.5454 66.133 57.7815 66.133C56.0176 66.133 54.3259 65.5824 53.0787 64.6024C51.8314 63.6224 51.1307 62.2933 51.1307 60.9073L57.7815 60.9073H64.4324Z" fill="white"/>
<ellipse cx="75.8338" cy="53.0394" rx="3.80049" ry="6.17579" fill="white"/>
<ellipse cx="76.4676" cy="42.6025" rx="1.08325" ry="3.97193" transform="rotate(105.783 76.4676 42.6025)" fill="white"/>
<ellipse rx="1.08325" ry="3.97193" transform="matrix(0.271996 0.962298 0.962298 -0.271996 39.0954 42.6025)" fill="white"/>
<path d="M149.829 40.9898C150.123 41.9798 150.068 42.9514 149.664 43.9048C149.298 44.8214 148.748 45.7198 148.014 46.5998C147.208 47.6998 146.254 48.6164 145.154 49.3498C144.091 50.0464 142.991 50.6514 141.854 51.1648C141.084 51.4948 140.314 51.7698 139.544 51.9898C138.774 52.2098 137.986 52.4298 137.179 52.6498C136.556 52.8331 135.933 52.9798 135.309 53.0898C134.723 53.1631 134.118 53.2548 133.494 53.3648C133.311 53.8781 133.274 54.4281 133.384 55.0148C133.494 55.5648 133.586 56.0414 133.659 56.4448C133.769 57.0681 133.788 57.7281 133.714 58.4248C133.678 59.0848 133.678 59.7448 133.714 60.4048C133.751 60.9548 133.788 61.4314 133.824 61.8348C133.898 62.2014 133.953 62.5681 133.989 62.9348C134.026 63.2648 134.063 63.6314 134.099 64.0348C134.136 64.4014 134.154 64.8598 134.154 65.4098C134.228 65.8131 134.301 66.1981 134.374 66.5648C134.448 66.8948 134.521 67.2431 134.594 67.6098C134.631 68.0131 134.558 68.3981 134.374 68.7648C134.228 69.1314 134.026 69.5164 133.769 69.9198C133.439 70.4331 133.073 70.7081 132.669 70.7448C132.266 70.7814 131.899 70.6714 131.569 70.4148C131.239 70.1581 130.946 69.8281 130.689 69.4248C130.433 68.9848 130.286 68.5814 130.249 68.2148C130.176 67.8114 130.103 67.4448 130.029 67.1148C129.993 66.7481 129.938 66.3998 129.864 66.0698C129.828 65.7398 129.809 65.4831 129.809 65.2998C129.809 65.1164 129.809 64.9514 129.809 64.8048C129.809 64.6214 129.809 64.4381 129.809 64.2548C129.846 64.0714 129.864 63.8148 129.864 63.4848C129.864 63.0814 129.828 62.6964 129.754 62.3298C129.718 61.9264 129.663 61.5231 129.589 61.1198C129.516 60.6431 129.461 60.1848 129.424 59.7448C129.388 59.2681 129.351 58.7914 129.314 58.3148C129.314 57.8014 129.333 57.3064 129.369 56.8298C129.406 56.3164 129.388 55.8214 129.314 55.3448C129.204 54.3548 129.113 53.3831 129.039 52.4298C129.003 51.4398 129.021 50.4314 129.094 49.4048C129.094 48.6348 129.021 47.9014 128.874 47.2048C128.764 46.4714 128.728 45.7381 128.764 45.0048C128.764 44.5648 128.764 44.1248 128.764 43.6848C128.801 43.2081 128.874 42.7681 128.984 42.3648C129.094 41.9248 129.278 41.5031 129.534 41.0998C129.828 40.6964 130.066 40.2931 130.249 39.8898C130.543 39.2298 130.873 38.6798 131.239 38.2398C131.606 37.7631 132.119 37.3231 132.779 36.9198C133.403 36.5164 134.044 36.2048 134.704 35.9848C135.401 35.7648 136.079 35.5631 136.739 35.3798C137.583 35.1598 138.463 34.9764 139.379 34.8298C140.296 34.6831 141.176 34.6098 142.019 34.6098C142.863 34.6098 143.669 34.7014 144.439 34.8848C145.209 35.0681 145.924 35.4164 146.584 35.9298C146.988 36.2964 147.373 36.7181 147.739 37.1948C148.143 37.6348 148.509 38.0931 148.839 38.5698C149.059 38.9364 149.261 39.3214 149.444 39.7248C149.628 40.1281 149.756 40.5498 149.829 40.9898ZM144.109 45.1698C144.513 44.7298 144.769 44.2531 144.879 43.7398C145.026 43.2264 145.099 42.7131 145.099 42.1998C145.099 41.5398 145.044 41.0264 144.934 40.6598C144.861 40.2564 144.604 39.8164 144.164 39.3398C143.798 38.9364 143.394 38.7531 142.954 38.7898C142.551 38.8264 142.056 38.8814 141.469 38.9548C140.883 39.0281 140.314 39.1014 139.764 39.1748C139.214 39.2114 138.646 39.3214 138.059 39.5048C137.546 39.6514 136.941 39.9081 136.244 40.2748C135.548 40.6414 134.998 41.0264 134.594 41.4298C134.264 41.7964 134.026 42.2364 133.879 42.7498C133.733 43.2631 133.623 43.7581 133.549 44.2348C133.549 44.7114 133.531 45.1881 133.494 45.6648C133.494 46.1414 133.494 46.6181 133.494 47.0948C133.494 47.3881 133.494 47.7548 133.494 48.1948C133.494 48.5981 133.458 48.8914 133.384 49.0748C133.934 48.9648 134.484 48.8731 135.034 48.7998C135.621 48.6898 136.208 48.5614 136.794 48.4148C137.418 48.2681 138.059 48.0848 138.719 47.8648C139.379 47.6448 140.039 47.4064 140.699 47.1498C141.323 46.9664 141.909 46.7281 142.459 46.4348C143.046 46.1048 143.596 45.6831 144.109 45.1698ZM178.876 54.5748C178.84 55.0881 178.858 55.5648 178.931 56.0048C179.005 56.4448 179.023 56.9031 178.986 57.3798C178.913 57.8564 178.821 58.3331 178.711 58.8098C178.638 59.2498 178.564 59.6714 178.491 60.0748C178.271 61.0281 177.978 61.9081 177.611 62.7148C177.281 63.5214 176.804 64.2914 176.181 65.0248C175.704 65.5748 175.228 66.1064 174.751 66.6198C174.274 67.1331 173.798 67.6464 173.321 68.1598C173.101 68.4531 172.881 68.7464 172.661 69.0398C172.478 69.2964 172.239 69.5164 171.946 69.6998C171.653 69.8831 171.378 70.0664 171.121 70.2498C170.864 70.3964 170.589 70.5798 170.296 70.7998C169.893 71.0931 169.324 71.2398 168.591 71.2398C167.858 71.2031 167.235 71.1298 166.721 71.0198C166.464 70.9464 166.226 70.8548 166.006 70.7448C165.823 70.5981 165.584 70.5064 165.291 70.4698C164.998 70.3964 164.723 70.3598 164.466 70.3598C164.209 70.3231 163.934 70.2314 163.641 70.0848C163.348 69.9748 163.073 69.8098 162.816 69.5898C162.559 69.3698 162.321 69.1498 162.101 68.9298C161.881 68.6731 161.643 68.4714 161.386 68.3248C161.129 68.1414 160.909 67.9214 160.726 67.6648C160.286 67.1514 159.883 66.6564 159.516 66.1798C159.149 65.6664 158.819 65.0981 158.526 64.4748C158.196 63.7048 157.848 62.9348 157.481 62.1648C157.114 61.3948 156.803 60.6064 156.546 59.7998C156.179 58.7731 155.923 57.7464 155.776 56.7198C155.666 55.6931 155.611 54.6481 155.611 53.5848C155.611 52.5581 155.648 51.5314 155.721 50.5048C155.831 49.4781 155.941 48.4881 156.051 47.5348C156.124 46.6914 156.289 45.8848 156.546 45.1148C156.803 44.3081 157.059 43.5198 157.316 42.7498C157.499 42.1631 157.738 41.5764 158.031 40.9898C158.361 40.4031 158.728 39.9081 159.131 39.5048C159.938 38.6614 160.873 37.9098 161.936 37.2498C162.486 36.9564 163.054 36.8281 163.641 36.8648C164.228 36.8648 164.814 36.8464 165.401 36.8098C165.951 36.7364 166.446 36.8098 166.886 37.0298C167.326 37.2131 167.803 37.3964 168.316 37.5798C168.756 37.7264 169.214 37.9281 169.691 38.1848C170.204 38.4048 170.699 38.5331 171.176 38.5698C171.69 38.6431 172.13 38.7531 172.496 38.8998C172.9 39.0098 173.339 39.2114 173.816 39.5048C174.439 39.9081 174.898 40.4214 175.191 41.0448C175.485 41.6681 175.87 42.2914 176.346 42.9148C176.639 43.2448 176.86 43.6298 177.006 44.0698C177.153 44.4731 177.318 44.8764 177.501 45.2798C177.685 45.7931 177.776 46.3064 177.776 46.8198C177.776 47.2964 177.868 47.7731 178.051 48.2498C178.235 48.7631 178.4 49.2581 178.546 49.7348C178.73 50.1748 178.876 50.6514 178.986 51.1648C179.096 51.7514 179.114 52.3381 179.041 52.9248C179.005 53.5114 178.949 54.0614 178.876 54.5748ZM174.586 53.4198C174.623 53.1264 174.641 52.8331 174.641 52.5398C174.678 52.2464 174.678 51.9531 174.641 51.6598C174.604 51.4031 174.549 51.1831 174.476 50.9998C174.439 50.7798 174.384 50.5598 174.311 50.3398C174.274 50.0464 174.256 49.7531 174.256 49.4598C174.256 49.1664 174.238 48.8731 174.201 48.5798C174.128 48.1764 174.055 47.8281 173.981 47.5348C173.908 47.2048 173.816 46.8381 173.706 46.4348C173.596 46.1048 173.486 45.7564 173.376 45.3898C173.266 45.0231 173.119 44.6564 172.936 44.2898C172.716 43.7398 172.459 43.3548 172.166 43.1348C171.909 42.9148 171.524 42.6764 171.011 42.4198C170.608 42.2364 170.223 42.1264 169.856 42.0898C169.489 42.0164 169.104 41.9248 168.701 41.8148C168.224 41.6314 167.784 41.5581 167.381 41.5948C167.014 41.5948 166.593 41.5948 166.116 41.5948C165.933 41.6314 165.731 41.6314 165.511 41.5948C165.291 41.5214 165.089 41.5214 164.906 41.5948C164.613 41.6681 164.393 41.7414 164.246 41.8148C164.136 41.8881 163.989 42.0164 163.806 42.1998C163.293 42.5664 162.834 42.9514 162.431 43.3548C162.064 43.7581 161.716 44.2531 161.386 44.8398C161.093 45.4264 160.909 46.0498 160.836 46.7098C160.763 47.3698 160.671 48.0114 160.561 48.6348C160.451 49.2214 160.359 49.8081 160.286 50.3948C160.249 50.9448 160.268 51.5131 160.341 52.0998C160.378 52.8331 160.396 53.5298 160.396 54.1898C160.433 54.8498 160.488 55.4914 160.561 56.1148C160.598 56.9581 160.616 57.8014 160.616 58.6448C160.653 59.4881 160.763 60.3131 160.946 61.1198C161.056 61.6331 161.221 62.1281 161.441 62.6048C161.661 63.0448 161.863 63.5031 162.046 63.9798C162.229 64.4931 162.413 64.8781 162.596 65.1348C162.779 65.3914 163.128 65.6114 163.641 65.7948C164.118 65.9781 164.558 66.1431 164.961 66.2898C165.364 66.4364 165.823 66.4914 166.336 66.4548C166.666 66.4548 166.941 66.4731 167.161 66.5098C167.418 66.5464 167.693 66.5281 167.986 66.4548C168.279 66.3081 168.554 66.1798 168.811 66.0698C169.068 65.9231 169.306 65.7581 169.526 65.5748C170.406 64.9514 171.213 64.2181 171.946 63.3748C172.679 62.4948 173.193 61.4681 173.486 60.2948C173.596 59.7814 173.743 59.2681 173.926 58.7548C174.109 58.2048 174.238 57.6364 174.311 57.0498C174.384 56.4631 174.421 55.8764 174.421 55.2898C174.458 54.6664 174.513 54.0431 174.586 53.4198ZM205.943 64.1998C206.053 63.3564 205.869 62.6048 205.393 61.9448C205.136 61.4681 204.879 61.0831 204.623 60.7898C204.403 60.4964 204.164 60.2214 203.908 59.9648C203.651 59.7081 203.358 59.4698 203.028 59.2498C202.734 58.9931 202.386 58.6998 201.983 58.3698C201.579 58.0764 201.249 57.8381 200.993 57.6548C200.736 57.4348 200.351 57.2698 199.838 57.1598C198.994 56.8664 198.004 56.6281 196.868 56.4448C196.391 56.3714 195.914 56.3714 195.438 56.4448C194.998 56.4814 194.539 56.5364 194.063 56.6098C193.586 56.6464 193.109 56.6831 192.633 56.7198C192.193 56.7198 191.734 56.6281 191.258 56.4448C191.184 56.9581 191.166 57.4531 191.203 57.9298C191.239 58.4064 191.258 58.9198 191.258 59.4698C191.221 59.7631 191.203 59.9648 191.203 60.0748C191.203 60.1481 191.203 60.2214 191.203 60.2948C191.239 60.3314 191.258 60.4048 191.258 60.5148C191.294 60.5881 191.313 60.7531 191.313 61.0098C191.386 61.5231 191.404 62.0364 191.368 62.5498C191.331 63.0631 191.313 63.5764 191.313 64.0898C191.386 64.5664 191.423 65.0614 191.423 65.5748C191.423 66.0514 191.441 66.5281 191.478 67.0048C191.551 67.0048 191.643 66.9864 191.753 66.9498C191.863 66.9131 191.973 66.8948 192.083 66.8948C192.559 66.8214 193.018 66.8031 193.458 66.8398C193.898 66.8764 194.338 66.9498 194.778 67.0598C195.328 67.1698 195.878 67.3348 196.428 67.5548C197.014 67.7381 197.583 67.8481 198.133 67.8848C198.793 67.9581 199.471 67.9398 200.168 67.8298C200.864 67.6831 201.506 67.5364 202.093 67.3898C202.569 67.3164 203.028 67.2248 203.468 67.1148C203.908 67.0048 204.293 66.8031 204.623 66.5098C204.916 66.2164 205.191 65.8864 205.448 65.5198C205.741 65.1164 205.906 64.6764 205.943 64.1998ZM186.143 46.8198C185.996 46.1598 185.941 45.5181 185.978 44.8948C186.014 44.3814 186.014 43.8498 185.978 43.2998C185.941 42.7498 186.014 42.2364 186.198 41.7598C186.564 40.6964 187.023 39.8898 187.573 39.3398C188.049 38.8631 188.911 38.5331 190.158 38.3498C190.561 38.2398 191.001 38.1481 191.478 38.0748C192.174 38.0014 193.164 37.8914 194.448 37.7448C195.768 37.5981 196.758 37.5248 197.418 37.5248C198.041 37.5248 198.774 37.5614 199.618 37.6348C200.498 37.7081 201.249 37.8181 201.873 37.9648C202.203 38.0381 202.551 38.1298 202.918 38.2398C203.284 38.3498 203.614 38.4964 203.908 38.6798C204.201 38.8631 204.421 39.1014 204.568 39.3948C204.714 39.6881 204.733 40.0731 204.623 40.5498C204.586 40.7698 204.531 40.8981 204.458 40.9348C204.384 40.9714 204.311 41.0814 204.238 41.2648C204.164 41.4848 204.036 41.6681 203.853 41.8148C203.669 41.9248 203.449 42.0348 203.193 42.1448C202.789 42.3281 202.441 42.4198 202.148 42.4198C201.891 42.4198 201.561 42.4381 201.158 42.4748C200.754 42.5481 200.259 42.5848 199.673 42.5848C199.123 42.5848 198.628 42.6031 198.188 42.6398C197.784 42.6764 197.381 42.6948 196.978 42.6948C196.611 42.6948 195.603 42.7314 193.953 42.8048C193.549 42.8414 193.128 42.9148 192.688 43.0248C192.284 43.1348 191.881 43.3181 191.478 43.5748C191.074 43.7948 190.818 44.0698 190.708 44.3998C190.598 44.6931 190.506 44.9681 190.433 45.2248C190.396 45.6648 190.378 46.1048 190.378 46.5448C190.378 47.6081 190.433 48.6714 190.543 49.7348C190.689 50.7981 190.744 51.6964 190.708 52.4298C191.111 52.2464 191.533 52.1364 191.973 52.0998C192.413 52.0264 192.834 51.9348 193.238 51.8248C193.751 51.6414 194.558 51.6048 195.658 51.7148C196.904 51.7881 198.334 52.0081 199.948 52.3748L201.598 53.1448C201.891 53.4014 202.221 53.6398 202.588 53.8598C202.991 54.0431 203.358 54.2264 203.688 54.4098C204.128 54.6664 204.531 54.9598 204.898 55.2898C205.264 55.6198 205.668 55.9314 206.108 56.2248C206.878 56.8114 207.538 57.4531 208.088 58.1498C208.638 58.8098 209.188 59.5614 209.738 60.4048C209.958 60.6614 210.141 60.9731 210.288 61.3398C210.434 61.6331 210.544 61.9998 210.618 62.4398C210.728 62.8431 210.764 63.3014 210.728 63.8148C210.728 64.1081 210.691 64.4564 210.618 64.8598C210.581 65.2631 210.489 65.6114 210.343 65.9048C210.159 66.5648 209.939 67.1698 209.683 67.7198C209.426 68.2331 209.041 68.7281 208.528 69.2048C207.941 69.6814 207.281 70.1031 206.548 70.4698C205.814 70.8364 205.118 71.1114 204.458 71.2948C203.688 71.4781 202.899 71.6248 202.093 71.7348C201.323 71.8814 200.553 71.9731 199.783 72.0098C198.793 72.0831 197.821 72.0831 196.868 72.0098C196.464 71.9731 196.043 71.8998 195.603 71.7898C195.199 71.7164 194.796 71.6798 194.393 71.6798C193.733 71.6798 193.109 71.6431 192.523 71.5698C191.973 71.4964 191.368 71.3681 190.708 71.1848C190.231 71.0381 189.773 70.9281 189.333 70.8548C188.929 70.7448 188.526 70.5431 188.123 70.2498C187.609 69.8831 187.334 69.4431 187.298 68.9298C187.261 68.3798 187.206 67.8114 187.133 67.2248C187.059 66.8214 187.023 66.4364 187.023 66.0698C187.059 65.7031 187.078 65.3181 187.078 64.9148C187.078 63.9614 187.096 63.0264 187.133 62.1098C187.169 61.1931 187.151 60.2581 187.078 59.3048C187.004 59.0114 186.986 58.7364 187.023 58.4798C187.059 58.2231 187.041 57.9664 186.968 57.7098C186.968 57.4531 186.931 57.2148 186.858 56.9948C186.821 56.7748 186.803 56.5364 186.803 56.2798C186.803 55.0331 186.784 53.7864 186.748 52.5398C186.711 51.2931 186.638 50.0464 186.528 48.7998C186.454 48.1764 186.344 47.5348 186.198 46.8748H186.143V46.8198ZM240.76 54.5748C240.723 55.0881 240.741 55.5648 240.815 56.0048C240.888 56.4448 240.906 56.9031 240.87 57.3798C240.796 57.8564 240.705 58.3331 240.595 58.8098C240.521 59.2498 240.448 59.6714 240.375 60.0748C240.155 61.0281 239.861 61.9081 239.495 62.7148C239.165 63.5214 238.688 64.2914 238.065 65.0248C237.588 65.5748 237.111 66.1064 236.635 66.6198C236.158 67.1331 235.681 67.6464 235.205 68.1598C234.985 68.4531 234.765 68.7464 234.545 69.0398C234.361 69.2964 234.123 69.5164 233.83 69.6998C233.536 69.8831 233.261 70.0664 233.005 70.2498C232.748 70.3964 232.473 70.5798 232.18 70.7998C231.776 71.0931 231.208 71.2398 230.475 71.2398C229.741 71.2031 229.118 71.1298 228.605 71.0198C228.348 70.9464 228.11 70.8548 227.89 70.7448C227.706 70.5981 227.468 70.5064 227.175 70.4698C226.881 70.3964 226.606 70.3598 226.35 70.3598C226.093 70.3231 225.818 70.2314 225.525 70.0848C225.231 69.9748 224.956 69.8098 224.7 69.5898C224.443 69.3698 224.205 69.1498 223.985 68.9298C223.765 68.6731 223.526 68.4714 223.27 68.3248C223.013 68.1414 222.793 67.9214 222.61 67.6648C222.17 67.1514 221.766 66.6564 221.4 66.1798C221.033 65.6664 220.703 65.0981 220.41 64.4748C220.08 63.7048 219.731 62.9348 219.365 62.1648C218.998 61.3948 218.686 60.6064 218.43 59.7998C218.063 58.7731 217.806 57.7464 217.66 56.7198C217.55 55.6931 217.495 54.6481 217.495 53.5848C217.495 52.5581 217.531 51.5314 217.605 50.5048C217.715 49.4781 217.825 48.4881 217.935 47.5348C218.008 46.6914 218.173 45.8848 218.43 45.1148C218.686 44.3081 218.943 43.5198 219.2 42.7498C219.383 42.1631 219.621 41.5764 219.915 40.9898C220.245 40.4031 220.611 39.9081 221.015 39.5048C221.821 38.6614 222.756 37.9098 223.82 37.2498C224.37 36.9564 224.938 36.8281 225.525 36.8648C226.111 36.8648 226.698 36.8464 227.285 36.8098C227.835 36.7364 228.33 36.8098 228.77 37.0298C229.21 37.2131 229.686 37.3964 230.2 37.5798C230.64 37.7264 231.098 37.9281 231.575 38.1848C232.088 38.4048 232.583 38.5331 233.06 38.5698C233.573 38.6431 234.013 38.7531 234.38 38.8998C234.783 39.0098 235.223 39.2114 235.7 39.5048C236.323 39.9081 236.781 40.4214 237.075 41.0448C237.368 41.6681 237.753 42.2914 238.23 42.9148C238.523 43.2448 238.743 43.6298 238.89 44.0698C239.036 44.4731 239.201 44.8764 239.385 45.2798C239.568 45.7931 239.66 46.3064 239.66 46.8198C239.66 47.2964 239.751 47.7731 239.935 48.2498C240.118 48.7631 240.283 49.2581 240.43 49.7348C240.613 50.1748 240.76 50.6514 240.87 51.1648C240.98 51.7514 240.998 52.3381 240.925 52.9248C240.888 53.5114 240.833 54.0614 240.76 54.5748ZM236.47 53.4198C236.506 53.1264 236.525 52.8331 236.525 52.5398C236.561 52.2464 236.561 51.9531 236.525 51.6598C236.488 51.4031 236.433 51.1831 236.36 50.9998C236.323 50.7798 236.268 50.5598 236.195 50.3398C236.158 50.0464 236.14 49.7531 236.14 49.4598C236.14 49.1664 236.121 48.8731 236.085 48.5798C236.011 48.1764 235.938 47.8281 235.865 47.5348C235.791 47.2048 235.7 46.8381 235.59 46.4348C235.48 46.1048 235.37 45.7564 235.26 45.3898C235.15 45.0231 235.003 44.6564 234.82 44.2898C234.6 43.7398 234.343 43.3548 234.05 43.1348C233.793 42.9148 233.408 42.6764 232.895 42.4198C232.491 42.2364 232.106 42.1264 231.74 42.0898C231.373 42.0164 230.988 41.9248 230.585 41.8148C230.108 41.6314 229.668 41.5581 229.265 41.5948C228.898 41.5948 228.476 41.5948 228 41.5948C227.816 41.6314 227.615 41.6314 227.395 41.5948C227.175 41.5214 226.973 41.5214 226.79 41.5948C226.496 41.6681 226.276 41.7414 226.13 41.8148C226.02 41.8881 225.873 42.0164 225.69 42.1998C225.176 42.5664 224.718 42.9514 224.315 43.3548C223.948 43.7581 223.6 44.2531 223.27 44.8398C222.976 45.4264 222.793 46.0498 222.72 46.7098C222.646 47.3698 222.555 48.0114 222.445 48.6348C222.335 49.2214 222.243 49.8081 222.17 50.3948C222.133 50.9448 222.151 51.5131 222.225 52.0998C222.261 52.8331 222.28 53.5298 222.28 54.1898C222.316 54.8498 222.371 55.4914 222.445 56.1148C222.481 56.9581 222.5 57.8014 222.5 58.6448C222.536 59.4881 222.646 60.3131 222.83 61.1198C222.94 61.6331 223.105 62.1281 223.325 62.6048C223.545 63.0448 223.746 63.5031 223.93 63.9798C224.113 64.4931 224.296 64.8781 224.48 65.1348C224.663 65.3914 225.011 65.6114 225.525 65.7948C226.001 65.9781 226.441 66.1431 226.845 66.2898C227.248 66.4364 227.706 66.4914 228.22 66.4548C228.55 66.4548 228.825 66.4731 229.045 66.5098C229.301 66.5464 229.576 66.5281 229.87 66.4548C230.163 66.3081 230.438 66.1798 230.695 66.0698C230.951 65.9231 231.19 65.7581 231.41 65.5748C232.29 64.9514 233.096 64.2181 233.83 63.3748C234.563 62.4948 235.076 61.4681 235.37 60.2948C235.48 59.7814 235.626 59.2681 235.81 58.7548C235.993 58.2048 236.121 57.6364 236.195 57.0498C236.268 56.4631 236.305 55.8764 236.305 55.2898C236.341 54.6664 236.396 54.0431 236.47 53.4198ZM268.981 37.9648C268.761 38.2581 268.395 38.4964 267.881 38.6798C267.405 38.8264 267.02 38.9364 266.726 39.0098C266.25 39.1931 265.755 39.2848 265.241 39.2848C264.765 39.2481 264.27 39.2664 263.756 39.3398C263.316 39.4131 262.84 39.4681 262.326 39.5048C261.813 39.5414 261.336 39.5781 260.896 39.6148C260.383 39.6514 259.851 39.6881 259.301 39.7248C259.338 40.7514 259.32 41.6864 259.246 42.5298C259.173 43.3364 259.081 44.1614 258.971 45.0048C258.788 45.8848 258.678 46.8014 258.641 47.7548C258.605 48.6714 258.586 49.6064 258.586 50.5598C258.586 51.2931 258.696 52.0081 258.916 52.7048C259.173 53.4014 259.32 54.1164 259.356 54.8498C259.393 55.4731 259.411 56.1148 259.411 56.7748C259.411 57.4348 259.411 58.1314 259.411 58.8648C259.411 59.5614 259.393 60.2581 259.356 60.9548C259.356 61.6148 259.356 62.2748 259.356 62.9348C259.356 63.4114 259.393 63.9064 259.466 64.4198C259.54 64.9331 259.613 65.4281 259.686 65.9048C259.76 66.4914 259.851 67.0231 259.961 67.4998C260.108 67.9764 260.2 68.4348 260.236 68.8748C260.31 69.3148 260.291 69.7548 260.181 70.1948C260.071 70.6348 259.815 71.1114 259.411 71.6248C259.155 71.9181 258.843 72.2298 258.476 72.5598C258.11 72.8898 257.725 72.9998 257.321 72.8898C257.028 72.8164 256.771 72.5781 256.551 72.1748C256.331 71.7714 256.13 71.4414 255.946 71.1848C255.653 70.5614 255.47 69.9381 255.396 69.3148C255.36 68.6914 255.286 68.0681 255.176 67.4448C254.846 65.8681 254.718 64.2731 254.791 62.6598C254.828 61.9264 254.901 61.2114 255.011 60.5148C255.158 59.8181 255.213 59.1031 255.176 58.3698C255.066 57.3064 254.938 56.2614 254.791 55.2348C254.681 54.2081 254.626 53.1631 254.626 52.0998C254.59 51.0364 254.59 49.9914 254.626 48.9648C254.7 47.9381 254.7 46.8931 254.626 45.8298C254.59 45.2431 254.571 44.6748 254.571 44.1248C254.571 43.5381 254.571 42.9514 254.571 42.3648C254.571 42.1814 254.553 41.9614 254.516 41.7048C254.48 41.4481 254.461 41.1731 254.461 40.8798C253.948 41.0631 253.435 41.2098 252.921 41.3198C252.408 41.4298 251.895 41.5764 251.381 41.7598C250.795 41.9431 250.263 41.9981 249.786 41.9248C249.346 41.8148 248.815 41.6681 248.191 41.4848C247.861 41.3748 247.531 41.3014 247.201 41.2648C246.871 41.2281 246.615 41.0264 246.431 40.6598C246.321 40.4031 246.211 40.1098 246.101 39.7798C245.991 39.4498 245.991 39.1564 246.101 38.8998C246.175 38.6431 246.321 38.3681 246.541 38.0748C246.761 37.7814 246.981 37.5614 247.201 37.4148C247.568 37.1214 248.008 36.9564 248.521 36.9198C249.071 36.8831 249.566 36.8464 250.006 36.8098C250.52 36.7364 251.033 36.6631 251.546 36.5898C252.06 36.4798 252.555 36.3698 253.031 36.2598C253.655 36.0764 254.296 35.9481 254.956 35.8748C255.616 35.7648 256.276 35.6548 256.936 35.5448C257.853 35.3614 258.77 35.2514 259.686 35.2148C260.64 35.1414 261.593 35.1048 262.546 35.1048C263.06 35.1048 263.555 35.1231 264.031 35.1598C264.545 35.1598 265.058 35.1781 265.571 35.2148C265.975 35.2881 266.378 35.3798 266.781 35.4898C267.221 35.5998 267.588 35.7648 267.881 35.9848C268.175 36.1681 268.468 36.4614 268.761 36.8648C269.091 37.2681 269.165 37.6348 268.981 37.9648ZM297.863 54.5748C297.826 55.0881 297.845 55.5648 297.918 56.0048C297.991 56.4448 298.01 56.9031 297.973 57.3798C297.9 57.8564 297.808 58.3331 297.698 58.8098C297.625 59.2498 297.551 59.6714 297.478 60.0748C297.258 61.0281 296.965 61.9081 296.598 62.7148C296.268 63.5214 295.791 64.2914 295.168 65.0248C294.691 65.5748 294.215 66.1064 293.738 66.6198C293.261 67.1331 292.785 67.6464 292.308 68.1598C292.088 68.4531 291.868 68.7464 291.648 69.0398C291.465 69.2964 291.226 69.5164 290.933 69.6998C290.64 69.8831 290.365 70.0664 290.108 70.2498C289.851 70.3964 289.576 70.5798 289.283 70.7998C288.88 71.0931 288.311 71.2398 287.578 71.2398C286.845 71.2031 286.221 71.1298 285.708 71.0198C285.451 70.9464 285.213 70.8548 284.993 70.7448C284.81 70.5981 284.571 70.5064 284.278 70.4698C283.985 70.3964 283.71 70.3598 283.453 70.3598C283.196 70.3231 282.921 70.2314 282.628 70.0848C282.335 69.9748 282.06 69.8098 281.803 69.5898C281.546 69.3698 281.308 69.1498 281.088 68.9298C280.868 68.6731 280.63 68.4714 280.373 68.3248C280.116 68.1414 279.896 67.9214 279.713 67.6648C279.273 67.1514 278.87 66.6564 278.503 66.1798C278.136 65.6664 277.806 65.0981 277.513 64.4748C277.183 63.7048 276.835 62.9348 276.468 62.1648C276.101 61.3948 275.79 60.6064 275.533 59.7998C275.166 58.7731 274.91 57.7464 274.763 56.7198C274.653 55.6931 274.598 54.6481 274.598 53.5848C274.598 52.5581 274.635 51.5314 274.708 50.5048C274.818 49.4781 274.928 48.4881 275.038 47.5348C275.111 46.6914 275.276 45.8848 275.533 45.1148C275.79 44.3081 276.046 43.5198 276.303 42.7498C276.486 42.1631 276.725 41.5764 277.018 40.9898C277.348 40.4031 277.715 39.9081 278.118 39.5048C278.925 38.6614 279.86 37.9098 280.923 37.2498C281.473 36.9564 282.041 36.8281 282.628 36.8648C283.215 36.8648 283.801 36.8464 284.388 36.8098C284.938 36.7364 285.433 36.8098 285.873 37.0298C286.313 37.2131 286.79 37.3964 287.303 37.5798C287.743 37.7264 288.201 37.9281 288.678 38.1848C289.191 38.4048 289.686 38.5331 290.163 38.5698C290.676 38.6431 291.116 38.7531 291.483 38.8998C291.886 39.0098 292.326 39.2114 292.803 39.5048C293.426 39.9081 293.885 40.4214 294.178 41.0448C294.471 41.6681 294.856 42.2914 295.333 42.9148C295.626 43.2448 295.846 43.6298 295.993 44.0698C296.14 44.4731 296.305 44.8764 296.488 45.2798C296.671 45.7931 296.763 46.3064 296.763 46.8198C296.763 47.2964 296.855 47.7731 297.038 48.2498C297.221 48.7631 297.386 49.2581 297.533 49.7348C297.716 50.1748 297.863 50.6514 297.973 51.1648C298.083 51.7514 298.101 52.3381 298.028 52.9248C297.991 53.5114 297.936 54.0614 297.863 54.5748ZM293.573 53.4198C293.61 53.1264 293.628 52.8331 293.628 52.5398C293.665 52.2464 293.665 51.9531 293.628 51.6598C293.591 51.4031 293.536 51.1831 293.463 50.9998C293.426 50.7798 293.371 50.5598 293.298 50.3398C293.261 50.0464 293.243 49.7531 293.243 49.4598C293.243 49.1664 293.225 48.8731 293.188 48.5798C293.115 48.1764 293.041 47.8281 292.968 47.5348C292.895 47.2048 292.803 46.8381 292.693 46.4348C292.583 46.1048 292.473 45.7564 292.363 45.3898C292.253 45.0231 292.106 44.6564 291.923 44.2898C291.703 43.7398 291.446 43.3548 291.153 43.1348C290.896 42.9148 290.511 42.6764 289.998 42.4198C289.595 42.2364 289.21 42.1264 288.843 42.0898C288.476 42.0164 288.091 41.9248 287.688 41.8148C287.211 41.6314 286.771 41.5581 286.368 41.5948C286.001 41.5948 285.58 41.5948 285.103 41.5948C284.92 41.6314 284.718 41.6314 284.498 41.5948C284.278 41.5214 284.076 41.5214 283.893 41.5948C283.6 41.6681 283.38 41.7414 283.233 41.8148C283.123 41.8881 282.976 42.0164 282.793 42.1998C282.28 42.5664 281.821 42.9514 281.418 43.3548C281.051 43.7581 280.703 44.2531 280.373 44.8398C280.08 45.4264 279.896 46.0498 279.823 46.7098C279.75 47.3698 279.658 48.0114 279.548 48.6348C279.438 49.2214 279.346 49.8081 279.273 50.3948C279.236 50.9448 279.255 51.5131 279.328 52.0998C279.365 52.8331 279.383 53.5298 279.383 54.1898C279.42 54.8498 279.475 55.4914 279.548 56.1148C279.585 56.9581 279.603 57.8014 279.603 58.6448C279.64 59.4881 279.75 60.3131 279.933 61.1198C280.043 61.6331 280.208 62.1281 280.428 62.6048C280.648 63.0448 280.85 63.5031 281.033 63.9798C281.216 64.4931 281.4 64.8781 281.583 65.1348C281.766 65.3914 282.115 65.6114 282.628 65.7948C283.105 65.9781 283.545 66.1431 283.948 66.2898C284.351 66.4364 284.81 66.4914 285.323 66.4548C285.653 66.4548 285.928 66.4731 286.148 66.5098C286.405 66.5464 286.68 66.5281 286.973 66.4548C287.266 66.3081 287.541 66.1798 287.798 66.0698C288.055 65.9231 288.293 65.7581 288.513 65.5748C289.393 64.9514 290.2 64.2181 290.933 63.3748C291.666 62.4948 292.18 61.4681 292.473 60.2948C292.583 59.7814 292.73 59.2681 292.913 58.7548C293.096 58.2048 293.225 57.6364 293.298 57.0498C293.371 56.4631 293.408 55.8764 293.408 55.2898C293.445 54.6664 293.5 54.0431 293.573 53.4198ZM325.92 40.9898C326.213 41.9798 326.158 42.9514 325.755 43.9048C325.388 44.8214 324.838 45.7198 324.105 46.5998C323.298 47.6998 322.345 48.6164 321.245 49.3498C320.181 50.0464 319.081 50.6514 317.945 51.1648C317.175 51.4948 316.405 51.7698 315.635 51.9898C314.865 52.2098 314.076 52.4298 313.27 52.6498C312.646 52.8331 312.023 52.9798 311.4 53.0898C310.813 53.1631 310.208 53.2548 309.585 53.3648C309.401 53.8781 309.365 54.4281 309.475 55.0148C309.585 55.5648 309.676 56.0414 309.75 56.4448C309.86 57.0681 309.878 57.7281 309.805 58.4248C309.768 59.0848 309.768 59.7448 309.805 60.4048C309.841 60.9548 309.878 61.4314 309.915 61.8348C309.988 62.2014 310.043 62.5681 310.08 62.9348C310.116 63.2648 310.153 63.6314 310.19 64.0348C310.226 64.4014 310.245 64.8598 310.245 65.4098C310.318 65.8131 310.391 66.1981 310.465 66.5648C310.538 66.8948 310.611 67.2431 310.685 67.6098C310.721 68.0131 310.648 68.3981 310.465 68.7648C310.318 69.1314 310.116 69.5164 309.86 69.9198C309.53 70.4331 309.163 70.7081 308.76 70.7448C308.356 70.7814 307.99 70.6714 307.66 70.4148C307.33 70.1581 307.036 69.8281 306.78 69.4248C306.523 68.9848 306.376 68.5814 306.34 68.2148C306.266 67.8114 306.193 67.4448 306.12 67.1148C306.083 66.7481 306.028 66.3998 305.955 66.0698C305.918 65.7398 305.9 65.4831 305.9 65.2998C305.9 65.1164 305.9 64.9514 305.9 64.8048C305.9 64.6214 305.9 64.4381 305.9 64.2548C305.936 64.0714 305.955 63.8148 305.955 63.4848C305.955 63.0814 305.918 62.6964 305.845 62.3298C305.808 61.9264 305.753 61.5231 305.68 61.1198C305.606 60.6431 305.551 60.1848 305.515 59.7448C305.478 59.2681 305.441 58.7914 305.405 58.3148C305.405 57.8014 305.423 57.3064 305.46 56.8298C305.496 56.3164 305.478 55.8214 305.405 55.3448C305.295 54.3548 305.203 53.3831 305.13 52.4298C305.093 51.4398 305.111 50.4314 305.185 49.4048C305.185 48.6348 305.111 47.9014 304.965 47.2048C304.855 46.4714 304.818 45.7381 304.855 45.0048C304.855 44.5648 304.855 44.1248 304.855 43.6848C304.891 43.2081 304.965 42.7681 305.075 42.3648C305.185 41.9248 305.368 41.5031 305.625 41.0998C305.918 40.6964 306.156 40.2931 306.34 39.8898C306.633 39.2298 306.963 38.6798 307.33 38.2398C307.696 37.7631 308.21 37.3231 308.87 36.9198C309.493 36.5164 310.135 36.2048 310.795 35.9848C311.491 35.7648 312.17 35.5631 312.83 35.3798C313.673 35.1598 314.553 34.9764 315.47 34.8298C316.386 34.6831 317.266 34.6098 318.11 34.6098C318.953 34.6098 319.76 34.7014 320.53 34.8848C321.3 35.0681 322.015 35.4164 322.675 35.9298C323.078 36.2964 323.463 36.7181 323.83 37.1948C324.233 37.6348 324.6 38.0931 324.93 38.5698C325.15 38.9364 325.351 39.3214 325.535 39.7248C325.718 40.1281 325.846 40.5498 325.92 40.9898ZM320.2 45.1698C320.603 44.7298 320.86 44.2531 320.97 43.7398C321.116 43.2264 321.19 42.7131 321.19 42.1998C321.19 41.5398 321.135 41.0264 321.025 40.6598C320.951 40.2564 320.695 39.8164 320.255 39.3398C319.888 38.9364 319.485 38.7531 319.045 38.7898C318.641 38.8264 318.146 38.8814 317.56 38.9548C316.973 39.0281 316.405 39.1014 315.855 39.1748C315.305 39.2114 314.736 39.3214 314.15 39.5048C313.636 39.6514 313.031 39.9081 312.335 40.2748C311.638 40.6414 311.088 41.0264 310.685 41.4298C310.355 41.7964 310.116 42.2364 309.97 42.7498C309.823 43.2631 309.713 43.7581 309.64 44.2348C309.64 44.7114 309.621 45.1881 309.585 45.6648C309.585 46.1414 309.585 46.6181 309.585 47.0948C309.585 47.3881 309.585 47.7548 309.585 48.1948C309.585 48.5981 309.548 48.8914 309.475 49.0748C310.025 48.9648 310.575 48.8731 311.125 48.7998C311.711 48.6898 312.298 48.5614 312.885 48.4148C313.508 48.2681 314.15 48.0848 314.81 47.8648C315.47 47.6448 316.13 47.4064 316.79 47.1498C317.413 46.9664 318 46.7281 318.55 46.4348C319.136 46.1048 319.686 45.6831 320.2 45.1698ZM352.821 63.6498C352.821 64.0531 352.766 64.7314 352.656 65.6848C352.583 66.6014 352.436 67.5181 352.216 68.4348C351.996 69.3514 351.666 70.1214 351.226 70.7448C350.823 71.3681 350.273 71.5881 349.576 71.4048C349.173 71.2948 348.88 71.0748 348.696 70.7448C348.513 70.4148 348.385 70.0664 348.311 69.6998C348.275 69.2964 348.275 68.8931 348.311 68.4898C348.385 68.0864 348.44 67.7381 348.476 67.4448C348.55 66.4181 348.568 65.4281 348.531 64.4748C348.495 63.4848 348.513 62.5131 348.586 61.5598V59.3048V54.8498C348.586 54.2631 348.568 53.5848 348.531 52.8148C348.495 52.0081 348.44 51.2014 348.366 50.3948C348.33 49.5514 348.275 48.7448 348.201 47.9748C348.128 47.2048 348.036 46.5264 347.926 45.9398C347.78 46.3064 347.596 46.7464 347.376 47.2598C347.193 47.7364 347.01 48.2314 346.826 48.7448C346.643 49.2581 346.46 49.7531 346.276 50.2298C346.13 50.7064 346.02 51.1098 345.946 51.4398C345.763 52.2098 345.525 52.9431 345.231 53.6398C344.938 54.2998 344.681 54.9964 344.461 55.7298C344.168 56.6831 343.93 57.6548 343.746 58.6448C343.6 59.5981 343.325 60.4964 342.921 61.3398C342.188 62.8798 341.363 64.2731 340.446 65.5198C339.566 66.7298 338.741 67.9398 337.971 69.1498C337.605 69.7364 337.165 70.3781 336.651 71.0748C336.138 71.7348 335.496 72.1564 334.726 72.3398C333.26 72.7431 332.508 72.1748 332.471 70.6348C332.398 68.9114 332.471 67.1881 332.691 65.4648C332.911 63.7048 332.985 61.9448 332.911 60.1848C332.838 58.9381 332.783 57.6914 332.746 56.4448C332.746 55.1614 332.71 53.8781 332.636 52.5948C332.563 51.2014 332.636 49.8081 332.856 48.4148C333.076 47.0214 333.223 45.6281 333.296 44.2348C333.296 43.7581 333.351 43.2814 333.461 42.8048C333.571 42.2914 333.645 41.8148 333.681 41.3748C333.755 40.8614 333.791 40.3481 333.791 39.8348C333.791 39.3214 333.81 38.7898 333.846 38.2398C333.846 37.9464 333.883 37.5981 333.956 37.1948C334.066 36.7914 334.213 36.4431 334.396 36.1498C334.58 35.8198 334.818 35.6181 335.111 35.5448C335.405 35.4714 335.753 35.6181 336.156 35.9848C336.78 36.6081 337.183 37.3048 337.366 38.0748C337.55 38.8081 337.623 39.5964 337.586 40.4398C337.513 41.5031 337.44 42.5664 337.366 43.6298C337.293 44.6931 337.256 45.7748 337.256 46.8748C337.256 47.4981 337.22 48.1214 337.146 48.7448C337.073 49.3314 337.036 49.9364 337.036 50.5598V55.0698V58.7548C336.963 59.2314 336.945 59.7631 336.981 60.3498C337.018 60.9364 336.963 61.4498 336.816 61.8898C337.33 61.4131 337.751 60.8814 338.081 60.2948C338.411 59.7081 338.778 59.1214 339.181 58.5348C339.915 57.3981 340.373 56.3164 340.556 55.2898C340.776 54.2631 341.051 53.3831 341.381 52.6498C342.041 51.1098 342.61 49.6614 343.086 48.3048C343.6 46.9114 344.058 45.3898 344.461 43.7398C344.645 43.0064 344.846 42.4014 345.066 41.9248C345.323 41.4481 345.58 40.9531 345.836 40.4398C345.983 40.1098 346.185 39.7431 346.441 39.3398C346.735 38.9364 347.065 38.5881 347.431 38.2948C347.798 37.9648 348.183 37.7264 348.586 37.5798C348.99 37.3964 349.393 37.3964 349.796 37.5798C350.09 37.6898 350.291 37.7814 350.401 37.8548C350.511 37.8914 350.603 37.9464 350.676 38.0198C350.75 38.0564 350.823 38.1481 350.896 38.2948C350.97 38.4048 351.098 38.5698 351.281 38.7898C351.538 39.0831 351.721 39.4498 351.831 39.8898C351.941 40.3298 352.015 40.8064 352.051 41.3198C352.088 41.7964 352.106 42.2914 352.106 42.8048C352.106 43.2814 352.106 43.7031 352.106 44.0698C352.106 45.9031 352.143 47.6814 352.216 49.4048C352.326 51.1281 352.381 52.8881 352.381 54.6848C352.381 55.7481 352.4 56.7748 352.436 57.7648C352.51 58.7548 352.583 59.7631 352.656 60.7898C352.656 61.3031 352.693 61.7981 352.766 62.2748C352.84 62.7148 352.858 63.1731 352.821 63.6498ZM372.48 51.7148C370.573 55.5648 369.473 57.7831 369.18 58.3698C368.923 58.9564 368.703 59.5981 368.52 60.2948C368.41 60.7714 368.245 61.2298 368.025 61.6698C367.805 62.1098 367.64 62.5681 367.53 63.0448C367.236 63.8148 366.925 64.5664 366.595 65.2998C366.301 65.9964 366.008 66.7114 365.715 67.4448C365.605 67.7381 365.458 68.0314 365.275 68.3248C365.091 68.6181 364.963 68.9114 364.89 69.2048C364.816 69.4614 364.761 69.6998 364.725 69.9198C364.688 70.1031 364.578 70.2864 364.395 70.4698C364.175 70.8364 363.9 71.2214 363.57 71.6248C363.24 71.9914 362.873 72.1381 362.47 72.0648C361.956 72.0281 361.663 71.7898 361.59 71.3498C361.516 70.8731 361.498 70.3781 361.535 69.8648C361.608 69.2048 361.755 68.5264 361.975 67.8298C362.231 67.0964 362.451 66.4181 362.635 65.7948C362.928 64.9881 363.24 64.1998 363.57 63.4298C363.9 62.6598 364.175 61.8531 364.395 61.0098C364.578 60.5331 364.725 60.0748 364.835 59.6348C364.981 59.1948 365.146 58.7731 365.33 58.3698C365.513 57.8931 365.733 57.4714 365.99 57.1048C366.246 56.7381 366.466 56.3164 366.65 55.8398C366.906 55.3631 367.126 54.8864 367.31 54.4098C367.53 53.8964 367.75 53.3831 367.97 52.8698C367.383 52.1364 366.851 51.3664 366.375 50.5598C365.935 49.7531 365.513 48.9281 365.11 48.0848C364.926 47.7181 364.725 47.3698 364.505 47.0398C364.321 46.7098 364.101 46.3614 363.845 45.9948C363.661 45.7014 363.46 45.4264 363.24 45.1698C363.02 44.8764 362.818 44.5831 362.635 44.2898C362.378 43.8131 362.103 43.3731 361.81 42.9698C361.553 42.5298 361.278 42.0714 360.985 41.5948C360.875 41.4114 360.746 41.2281 360.6 41.0448C360.49 40.8248 360.398 40.5864 360.325 40.3298C360.251 39.9998 360.27 39.7064 360.38 39.4498C360.526 39.1564 360.691 38.8631 360.875 38.5698C361.168 38.0198 361.608 37.7081 362.195 37.6348C362.781 37.5614 363.313 37.6164 363.79 37.7998C364.376 37.9831 364.908 38.4231 365.385 39.1198C365.861 39.8164 366.283 40.4398 366.65 40.9898C367.016 41.5031 367.346 42.0531 367.64 42.6398C367.933 43.2264 368.245 43.7764 368.575 44.2898C368.941 44.8031 369.29 45.3164 369.62 45.8298C369.986 46.3064 370.316 46.8014 370.61 47.3148C370.683 47.1681 370.903 46.7464 371.27 46.0498C371.673 45.3164 372.131 44.4914 372.645 43.5748C373.195 42.6214 373.8 41.6681 374.46 40.7148C375.12 39.7248 375.743 38.8998 376.33 38.2398C376.953 37.5798 377.503 37.1581 377.98 36.9748C378.493 36.7914 378.878 37.0114 379.135 37.6348C379.208 37.8181 379.318 38.0931 379.465 38.4598C379.648 38.8264 379.721 39.1014 379.685 39.2848C379.685 39.4681 379.611 39.6698 379.465 39.8898C379.318 40.0731 379.171 40.2564 379.025 40.4398C378.731 41.0264 378.365 41.5764 377.925 42.0898C377.521 42.5664 377.173 43.1164 376.88 43.7398C376.33 44.9864 375.67 46.1781 374.9 47.3148C374.13 48.4514 373.451 49.6431 372.865 50.8898C372.791 50.9998 372.718 51.1281 372.645 51.2748C372.608 51.4214 372.553 51.5681 372.48 51.7148ZM412.417 50.0098C412.38 51.2198 412.344 52.4114 412.307 53.5848C412.307 54.7214 412.307 55.8764 412.307 57.0498C412.307 58.2964 412.215 59.5431 412.032 60.7898C411.849 61.9998 411.702 63.2281 411.592 64.4748C411.519 65.4648 411.537 66.4548 411.647 67.4448C411.794 68.3981 411.959 69.3331 412.142 70.2498C412.289 71.2031 412.105 71.9364 411.592 72.4498C411.115 72.9631 410.492 73.0731 409.722 72.7798C409.282 72.5598 408.915 72.3031 408.622 72.0098C408.329 71.7164 408.164 71.3864 408.127 71.0198C408.09 70.6531 408.035 70.2681 407.962 69.8648C407.705 68.6914 407.559 67.4998 407.522 66.2898C407.485 65.0798 407.467 63.8881 407.467 62.7148C407.467 61.7614 407.504 60.8814 407.577 60.0748C407.687 59.2314 407.779 58.3514 407.852 57.4348C407.925 56.8114 407.962 56.2064 407.962 55.6198C407.962 54.9964 407.999 54.3731 408.072 53.7498C408.145 53.0898 408.164 52.4664 408.127 51.8798C408.09 51.2564 408.072 50.6148 408.072 49.9548C408.072 49.1848 408.035 48.4881 407.962 47.8648C407.889 47.2048 407.852 46.5631 407.852 45.9398C407.595 46.3798 407.247 46.8381 406.807 47.3148C406.44 47.7548 406.11 48.2681 405.817 48.8548C405.524 49.4048 405.23 49.9731 404.937 50.5598C404.68 51.1098 404.387 51.6598 404.057 52.2098C403.764 52.7598 403.434 53.2364 403.067 53.6398C402.774 53.9698 402.444 54.3364 402.077 54.7398C401.71 55.1064 401.325 55.3631 400.922 55.5098C400.555 55.6198 400.079 55.6198 399.492 55.5098C398.942 55.3998 398.502 55.2531 398.172 55.0698C397.695 54.7764 397.31 54.3914 397.017 53.9148C396.76 53.4014 396.504 52.9064 396.247 52.4298C395.88 51.8431 395.514 51.2931 395.147 50.7798C394.78 50.2298 394.432 49.6614 394.102 49.0748C393.442 48.0481 392.635 47.0214 391.682 45.9948C391.682 46.5081 391.682 47.0031 391.682 47.4798C391.719 47.9198 391.719 48.3781 391.682 48.8548C391.609 49.5881 391.499 50.3214 391.352 51.0548C391.205 51.7881 391.114 52.5214 391.077 53.2548C391.004 54.0614 390.967 54.8498 390.967 55.6198C390.967 56.3898 390.967 57.1598 390.967 57.9298C390.967 58.5898 390.985 59.2498 391.022 59.9098C391.059 60.5698 391.004 61.2298 390.857 61.8898C390.784 62.5131 390.71 63.1364 390.637 63.7598C390.564 64.3464 390.527 64.9514 390.527 65.5748C390.527 66.4181 390.582 67.2248 390.692 67.9948C390.692 68.1781 390.692 68.3614 390.692 68.5448C390.692 68.7281 390.71 68.9114 390.747 69.0948C390.747 69.2414 390.765 69.4248 390.802 69.6448C390.839 69.8281 390.82 69.9931 390.747 70.1398C390.71 70.3231 390.582 70.4698 390.362 70.5798C390.179 70.6531 389.995 70.7264 389.812 70.7998C389.665 70.8731 389.519 70.9648 389.372 71.0748C389.262 71.1481 389.134 71.2214 388.987 71.2948C388.62 71.5514 388.254 71.5514 387.887 71.2948C387.557 71.0014 387.3 70.6898 387.117 70.3598C386.897 69.9564 386.787 69.5531 386.787 69.1498C386.787 68.7098 386.75 68.2881 386.677 67.8848C386.494 66.9681 386.402 66.1248 386.402 65.3548C386.402 64.5114 386.439 63.6864 386.512 62.8798C386.622 62.0364 386.714 61.2298 386.787 60.4598C386.86 59.9464 386.842 59.4698 386.732 59.0298C386.659 58.5531 386.585 58.0581 386.512 57.5448C386.439 56.8848 386.42 56.2248 386.457 55.5648C386.53 54.9048 386.604 54.2631 386.677 53.6398C386.714 52.9798 386.787 52.3381 386.897 51.7148C387.007 51.0548 387.099 50.4131 387.172 49.7898C387.245 49.3131 387.282 48.8364 387.282 48.3598C387.319 47.8831 387.374 47.3881 387.447 46.8748C387.63 45.7381 387.777 44.6931 387.887 43.7398C387.997 42.7864 388.015 41.8331 387.942 40.8798C387.832 40.3298 387.795 39.7798 387.832 39.2298C387.905 38.6798 388.07 38.1664 388.327 37.6898C388.584 37.2131 388.914 36.8464 389.317 36.5898C389.757 36.2964 390.27 36.1498 390.857 36.1498C391.297 36.1498 391.627 36.2598 391.847 36.4798C392.104 36.6631 392.305 36.9014 392.452 37.1948C392.635 37.4881 392.8 37.7998 392.947 38.1298C393.094 38.4598 393.295 38.7531 393.552 39.0098C394.395 39.8531 395.129 40.8431 395.752 41.9798C396.375 43.0798 396.962 44.1614 397.512 45.2248C397.769 45.6281 397.952 46.0864 398.062 46.5998C398.209 47.1131 398.465 47.5898 398.832 48.0298C399.089 48.3231 399.364 48.7264 399.657 49.2398C399.987 49.7164 400.317 50.1014 400.647 50.3948C400.977 49.8081 401.399 49.0748 401.912 48.1948C402.462 47.3148 402.847 46.5814 403.067 45.9948C403.544 44.9314 403.874 43.9048 404.057 42.9148C404.277 41.8881 404.589 40.8798 404.992 39.8898C405.102 39.6331 405.175 39.3948 405.212 39.1748C405.285 38.9548 405.359 38.7714 405.432 38.6248C405.505 38.4414 405.597 38.2764 405.707 38.1298C405.854 37.9831 406.055 37.8181 406.312 37.6348C406.789 37.3414 407.265 37.1214 407.742 36.9748C408.255 36.8281 408.769 36.8464 409.282 37.0298C409.355 37.1031 409.465 37.1581 409.612 37.1948C409.759 37.2314 409.905 37.3048 410.052 37.4148C410.272 37.7081 410.437 38.0381 410.547 38.4048C410.694 38.7348 410.859 39.0648 411.042 39.3948C411.225 39.8714 411.372 40.3664 411.482 40.8798C411.629 41.3564 411.739 41.8514 411.812 42.3648C411.922 42.8414 412.032 43.3181 412.142 43.7948C412.289 44.2714 412.362 44.7664 412.362 45.2798C412.325 46.0864 412.344 46.8931 412.417 47.6998C412.49 48.4698 412.49 49.2398 412.417 50.0098Z" fill="black"/>
</g>
<defs>
<filter id="filter0_d" x="0" y="0" width="416.472" height="116.249" filterUnits="userSpaceOnUse" color-interpolation-filters="sRGB">
<feFlood flood-opacity="0" result="BackgroundImageFix"/>
<feColorMatrix in="SourceAlpha" type="matrix" values="0 0 0 0 0 0 0 0 0 0 0 0 0 0 0 0 0 0 127 0"/>
<feOffset dy="4"/>
<feGaussianBlur stdDeviation="2"/>
<feColorMatrix type="matrix" values="0 0 0 0 0 0 0 0 0 0 0 0 0 0 0 0 0 0 0.25 0"/>
<feBlend mode="normal" in2="BackgroundImageFix" result="effect1_dropShadow"/>
<feBlend mode="normal" in="SourceGraphic" in2="effect1_dropShadow" result="shape"/>
</filter>
</defs>
</svg>
