<svg width="52" height="52" viewBox="0 0 52 52" fill="none" xmlns="http://www.w3.org/2000/svg">
<path d="M25.9877 4.33322C21.7024 4.33322 17.5134 5.60395 13.9503 7.98471C10.3873 10.3655 7.6102 13.7493 5.9703 17.7084C4.3304 21.6675 3.90133 26.0239 4.73734 30.2268C5.57336 34.4298 7.63691 38.2904 10.667 41.3205C13.6972 44.3507 17.5578 46.4142 21.7607 47.2502C25.9637 48.0863 30.3201 47.6572 34.2792 46.0173C38.2382 44.3774 41.6221 41.6003 44.0029 38.0372C46.3836 34.4742 47.6544 30.2852 47.6544 25.9999C47.6546 23.1545 47.0943 20.337 46.0056 17.7081C44.9168 15.0793 43.3209 12.6907 41.3089 10.6787C39.2969 8.66673 36.9083 7.07079 34.2794 5.98202C31.6506 4.89325 28.8331 4.33299 25.9877 4.33322ZM32.8766 37.1636C32.7955 37.3658 32.6721 37.5483 32.5147 37.699C32.3573 37.8496 32.1695 37.9648 31.9639 38.0369C31.7583 38.1091 31.5397 38.1364 31.3227 38.1171C31.1057 38.0978 30.8953 38.0324 30.7056 37.9252L24.8238 33.3548L21.0488 36.8376C20.9612 36.9023 20.8588 36.9439 20.7509 36.9587C20.6429 36.9734 20.5331 36.9608 20.4313 36.9219L21.155 30.4469L21.1781 30.4653L21.1929 30.3375C21.1929 30.3375 31.7771 20.7012 32.2083 20.2906C32.6448 19.8811 32.5008 19.7923 32.5008 19.7923C32.5256 19.2928 31.7175 19.7923 31.7175 19.7923L17.6937 28.8144L11.8535 26.8254C11.8535 26.8254 10.9565 26.5036 10.872 25.7962C10.7831 25.0942 11.8827 24.7129 11.8827 24.7129L35.1029 15.4883C35.1029 15.4883 37.0117 14.6378 37.0117 16.0462L32.8766 37.1636Z" fill="black"/>
</svg>
