<svg width="54" height="54" viewBox="0 0 54 54" fill="none" xmlns="http://www.w3.org/2000/svg">
<path d="M49.5 14.7375C49.4747 13.7668 49.3996 12.798 49.275 11.835C49.107 10.9915 48.827 10.1743 48.4425 9.40497C48.0404 8.57046 47.5003 7.80978 46.845 7.15497C46.1837 6.50743 45.4244 5.9683 44.595 5.55747C43.8247 5.18047 43.0075 4.90806 42.165 4.74747C41.2112 4.60459 40.2493 4.52193 39.285 4.49997H14.7375C13.7668 4.52525 12.798 4.60035 11.835 4.72497C10.9915 4.89297 10.1743 5.17295 9.40502 5.55747C8.5705 5.95963 7.80983 6.49971 7.15502 7.15497C6.50748 7.81627 5.96834 8.57561 5.55752 9.40497C5.18052 10.1753 4.90811 10.9925 4.74752 11.835C4.60464 12.7888 4.52198 13.7507 4.50002 14.715C4.50002 15.1425 4.50002 15.75 4.50002 15.93V38.07C4.50002 38.3175 4.50002 38.8575 4.50002 39.2625C4.5253 40.2332 4.6004 41.202 4.72502 42.165C4.89302 43.0084 5.173 43.8257 5.55752 44.595C5.95967 45.4295 6.49975 46.1902 7.15502 46.845C7.81631 47.4925 8.57565 48.0316 9.40502 48.4425C10.1753 48.8195 10.9926 49.0919 11.835 49.2525C12.7889 49.3953 13.7508 49.478 14.715 49.5H39.2625C40.2332 49.4747 41.202 49.3996 42.165 49.275C43.0085 49.107 43.8257 48.827 44.595 48.4425C45.4295 48.0403 46.1902 47.5002 46.845 46.845C47.4926 46.1837 48.0317 45.4243 48.4425 44.595C48.8195 43.8246 49.0919 43.0074 49.2525 42.165C49.3954 41.2111 49.4781 40.2492 49.5 39.285C49.5 38.8575 49.5 38.3175 49.5 38.07V15.93C49.5 15.75 49.5 15.1425 49.5 14.7375ZM27.5175 42.75C24.8154 42.7366 22.1606 42.04 19.8 40.725L11.25 42.975L13.5 34.605C12.049 32.167 11.2725 29.387 11.25 26.55C11.259 23.3615 12.2112 20.2471 13.9868 17.5988C15.7624 14.9505 18.282 12.8869 21.2282 11.6678C24.1743 10.4487 27.4154 10.1287 30.5431 10.7481C33.6708 11.3674 36.5452 12.8985 38.8045 15.1483C41.0637 17.3982 42.6067 20.2663 43.2391 23.3914C43.8714 26.5165 43.5649 29.7588 42.358 32.71C41.1512 35.6612 39.0981 38.1894 36.4572 39.976C33.8164 41.7626 30.7059 42.7277 27.5175 42.75ZM27.5175 13.2075C25.1321 13.2348 22.7965 13.8937 20.7485 15.1171C18.7005 16.3406 17.0133 18.0849 15.8587 20.1724C14.704 22.2599 14.1232 24.6161 14.1752 27.0012C14.2273 29.3862 14.9104 31.7148 16.155 33.75L16.47 34.2675L15.12 39.195L20.25 37.8L20.745 38.0925C22.7916 39.2979 25.1199 39.9421 27.495 39.96C31.0754 39.96 34.5092 38.5376 37.041 36.0059C39.5727 33.4742 40.995 30.0404 40.995 26.46C40.995 22.8795 39.5727 19.4458 37.041 16.914C34.5092 14.3823 31.0754 12.96 27.495 12.96L27.5175 13.2075ZM35.3925 32.3775C35.0978 32.869 34.7032 33.2932 34.2343 33.6227C33.7653 33.9521 33.2324 34.1794 32.67 34.29C31.8297 34.4436 30.9646 34.3895 30.15 34.1325C29.3836 33.8928 28.6322 33.6073 27.9 33.2775C25.1184 31.8817 22.7463 29.7886 21.015 27.2025C20.0743 26.0043 19.5034 24.5577 19.3725 23.04C19.3591 22.4095 19.4784 21.7832 19.7226 21.2018C19.9668 20.6204 20.3305 20.0968 20.79 19.665C20.9254 19.5115 21.0915 19.3881 21.2775 19.3029C21.4635 19.2176 21.6654 19.1723 21.87 19.17H22.5C22.7475 19.17 23.085 19.17 23.4 19.8675C23.715 20.565 24.5475 22.6575 24.66 22.86C24.7153 22.9679 24.7441 23.0874 24.7441 23.2087C24.7441 23.33 24.7153 23.4495 24.66 23.5575C24.5606 23.802 24.4239 24.0296 24.255 24.2325C24.0525 24.48 23.8275 24.7725 23.6475 24.9525C23.4675 25.1325 23.2425 25.3575 23.4675 25.7625C24.0797 26.7956 24.8375 27.7353 25.7175 28.5525C26.6758 29.3993 27.7715 30.0765 28.9575 30.555C29.3625 30.7575 29.61 30.735 29.835 30.555C30.06 30.375 30.8475 29.385 31.1175 28.98C31.3875 28.575 31.6575 28.6425 32.0175 28.7775C32.3775 28.9125 34.38 29.88 34.785 30.0825C35.19 30.285 35.4375 30.375 35.55 30.555C35.6476 31.1438 35.5934 31.7479 35.3925 32.31V32.3775Z" fill="black"/>
</svg>
