<svg width="296" height="298" viewBox="0 0 296 298" fill="none" xmlns="http://www.w3.org/2000/svg">
<g filter="url(#filter0_d)">
<path fill-rule="evenodd" clip-rule="evenodd" d="M285.201 38.4525L55.8726 6.64588L38.8288 130.593L9.99993 252.298L237.845 283.899L251.696 234.065C264.382 188.421 273.444 141.843 278.798 94.7638L285.201 38.4525Z" fill="#F7F8E8"/>
</g>
<path d="M97.8855 93.562L93.8218 92.9884L84.7328 79.4897L83.0565 91.4689L79.7413 91.001L83.2338 66.0442L86.5489 66.5121L84.9723 77.7783L96.9577 67.9813L101.021 68.5548L88.3103 79.122L97.8855 93.562ZM117.771 78.1904L120.872 78.6281L118.378 96.4544L115.277 96.0167L115.706 92.9505C113.832 95.0856 111.421 95.9451 108.475 95.5292C105.979 95.177 103.979 93.9736 102.473 91.919C100.97 89.8406 100.402 87.4942 100.768 84.8796C101.134 82.2651 102.323 80.1788 104.334 78.6206C106.349 77.0386 108.604 76.4237 111.099 76.7759C114.046 77.1919 116.127 78.6854 117.342 81.2565L117.771 78.1904ZM109.286 92.5897C111.092 92.8447 112.686 92.4516 114.067 91.4104C115.452 90.3455 116.271 88.9099 116.524 87.1035C116.777 85.2971 116.382 83.7023 115.34 82.319C114.301 80.912 112.878 80.081 111.072 79.8261C109.29 79.5745 107.706 79.9812 106.321 81.0461C104.939 82.0872 104.122 83.511 103.869 85.3174C103.617 87.1238 104.01 88.7305 105.049 90.1375C106.091 91.5208 107.503 92.3382 109.286 92.5897ZM139.759 99.4723L135.909 98.9289L128.964 89.3321L127.782 97.7817L124.681 97.344L127.175 79.5177L130.277 79.9554L129.174 87.8346L137.976 81.0422L141.969 81.6057L132.242 89.0311L139.759 99.4723ZM163.075 103.236C160.39 102.857 158.281 101.65 156.748 99.616C155.218 97.558 154.64 95.198 155.012 92.536C155.385 89.8739 156.587 87.7773 158.619 86.2463C160.654 84.6914 163.014 84.1035 165.7 84.4826C167.458 84.7308 168.979 85.3817 170.261 86.4352C171.547 87.465 172.434 88.7416 172.924 90.265L170.112 91.3951C169.794 90.3807 169.199 89.5211 168.328 88.8165C167.481 88.1152 166.464 87.6808 165.275 87.513C163.493 87.2615 161.911 87.6563 160.53 88.6974C159.172 89.7419 158.366 91.1673 158.114 92.9737C157.864 94.7563 158.249 96.3376 159.267 97.7175C160.31 99.1007 161.722 99.9182 163.504 100.17C164.693 100.337 165.8 100.215 166.827 99.8025C167.858 99.3663 168.689 98.708 169.321 97.8277L171.744 99.7331C170.788 101.028 169.536 102.003 167.991 102.657C166.449 103.288 164.81 103.481 163.075 103.236ZM191.303 88.5691L190.884 91.5639L184.824 90.7086L182.749 105.54L179.648 105.102L181.723 90.2708L175.627 89.4105L176.047 86.4157L191.303 88.5691ZM209.687 91.1638L212.788 91.6015L210.293 109.428L207.192 108.99L207.621 105.924C205.747 108.059 203.337 108.919 200.39 108.503C197.895 108.15 195.894 106.947 194.388 104.892C192.886 102.814 192.318 100.468 192.684 97.8531C193.049 95.2386 194.238 93.1522 196.249 91.594C198.264 90.0121 200.519 89.3972 203.014 89.7494C205.961 90.1653 208.042 91.6588 209.258 94.2299L209.687 91.1638ZM201.201 105.563C203.007 105.818 204.601 105.425 205.983 104.384C207.368 103.319 208.187 101.883 208.439 100.077C208.692 98.2706 208.297 96.6757 207.255 95.2925C206.216 93.8855 204.793 93.0545 202.987 92.7996C201.205 92.548 199.621 92.9547 198.236 94.0195C196.855 95.0607 196.038 96.4844 195.785 98.2908C195.532 100.097 195.925 101.704 196.964 103.111C198.007 104.494 199.419 105.312 201.201 105.563ZM232.351 94.3628L231.932 97.3576L225.872 96.5023L223.797 111.334L220.696 110.896L222.771 96.0646L216.675 95.2042L217.095 92.2094L232.351 94.3628ZM243.297 102.452C245.079 102.703 246.478 103.446 247.492 104.68C248.534 105.894 248.937 107.344 248.701 109.032C248.465 110.719 247.678 112.014 246.34 112.916C245.029 113.797 243.482 114.112 241.7 113.861L234.179 112.799L236.673 94.9728L239.774 95.4106L238.876 101.828L243.297 102.452ZM242.104 110.973C242.983 111.097 243.755 110.951 244.419 110.536C245.11 110.1 245.516 109.455 245.635 108.599C245.755 107.743 245.543 107.011 244.998 106.4C244.477 105.794 243.777 105.428 242.897 105.304L238.477 104.68L237.684 110.349L242.104 110.973ZM85.66 128.193L88.7613 128.631L86.2667 146.457L83.1654 146.02L84.0635 139.602C82.5511 140.019 80.9038 140.101 79.1215 139.85C76.8401 139.528 75.1445 138.743 74.0346 137.496C72.9519 136.228 72.5585 134.536 72.8545 132.421L73.6827 126.503L76.784 126.94L75.9808 132.68C75.7945 134.012 76.0179 135.013 76.651 135.684C77.3079 136.358 78.3374 136.794 79.7395 136.992C81.4268 137.23 83.0028 137.138 84.4676 136.714L85.66 128.193ZM109.835 131.605L112.936 132.043L110.442 149.869L107.34 149.432L107.769 146.366C105.895 148.501 103.485 149.36 100.538 148.944C98.0429 148.592 96.0424 147.389 94.5366 145.334C93.0342 143.256 92.4659 140.909 92.8318 138.295C93.1976 135.68 94.3862 133.594 96.3976 132.036C98.4123 130.454 100.667 129.839 103.163 130.191C106.109 130.607 108.19 132.1 109.406 134.672L109.835 131.605ZM101.349 146.005C103.156 146.26 104.749 145.867 106.131 144.825C107.516 143.761 108.335 142.325 108.588 140.519C108.84 138.712 108.446 137.117 107.403 135.734C106.364 134.327 104.942 133.496 103.136 133.241C101.353 132.99 99.7696 133.396 98.3846 134.461C97.003 135.502 96.1858 136.926 95.933 138.732C95.6802 140.539 96.0734 142.146 97.1124 143.553C98.1547 144.936 99.5671 145.753 101.349 146.005ZM125.056 152.405C122.371 152.026 120.262 150.819 118.729 148.785C117.2 146.727 116.621 144.367 116.994 141.705C117.366 139.043 118.568 136.946 120.6 135.415C122.635 133.86 124.995 133.273 127.681 133.652C129.439 133.9 130.96 134.551 132.242 135.604C133.528 136.634 134.415 137.911 134.905 139.434L132.093 140.564C131.775 139.55 131.18 138.69 130.309 137.986C129.463 137.284 128.445 136.85 127.257 136.682C125.474 136.431 123.892 136.825 122.511 137.866C121.153 138.911 120.348 140.336 120.095 142.143C119.845 143.925 120.23 145.507 121.248 146.887C122.291 148.27 123.703 149.087 125.486 149.339C126.674 149.506 127.781 149.384 128.808 148.972C129.839 148.535 130.67 147.877 131.302 146.997L133.726 148.902C132.769 150.197 131.518 151.172 129.972 151.826C128.43 152.457 126.791 152.65 125.056 152.405ZM153.285 137.738L152.865 140.733L146.806 139.878L144.73 154.709L141.629 154.271L143.704 139.44L137.609 138.58L138.028 135.585L153.285 137.738ZM164.23 145.827C166.012 146.079 167.411 146.822 168.426 148.055C169.467 149.269 169.87 150.72 169.634 152.407C169.398 154.095 168.611 155.389 167.273 156.291C165.962 157.173 164.416 157.488 162.633 157.236L155.112 156.174L157.606 138.348L160.708 138.786L159.81 145.203L164.23 145.827ZM163.037 154.348C163.917 154.472 164.688 154.327 165.352 153.911C166.043 153.476 166.449 152.83 166.568 151.974C166.688 151.119 166.476 150.386 165.931 149.776C165.41 149.169 164.71 148.804 163.831 148.679L159.411 148.056L158.617 153.724L163.037 154.348ZM191.91 142.717C194.525 143.086 196.608 144.301 198.162 146.363C199.739 148.427 200.343 150.779 199.973 153.417C199.604 156.056 198.378 158.149 196.296 159.697C194.237 161.248 191.9 161.84 189.286 161.471C186.934 161.139 185.006 160.103 183.505 158.364C182.003 156.625 181.246 154.591 181.233 152.263L177.917 151.795L176.875 159.246L173.773 158.808L176.268 140.982L179.369 141.42L178.332 148.836L181.647 149.304C182.299 147.069 183.583 145.335 185.501 144.103C187.445 142.851 189.582 142.389 191.91 142.717ZM189.71 158.44C191.469 158.688 193.039 158.292 194.421 157.251C195.802 156.21 196.619 154.786 196.872 152.98C197.125 151.173 196.73 149.578 195.688 148.195C194.645 146.812 193.245 145.996 191.486 145.748C189.704 145.496 188.122 145.891 186.74 146.932C185.359 147.973 184.542 149.397 184.289 151.203C184.036 153.01 184.431 154.605 185.473 155.988C186.516 157.371 187.928 158.189 189.71 158.44ZM82.3826 182.266L79.888 200.092L76.7867 199.654L78.8672 184.787L69.6347 183.484L67.5542 198.351L64.453 197.914L66.9476 180.087L82.3826 182.266ZM98.6107 184.084C101.106 184.436 103.105 185.651 104.607 187.73C106.113 189.784 106.683 192.119 106.317 194.733C105.951 197.348 104.761 199.446 102.746 201.028C100.735 202.586 98.4816 203.189 95.9864 202.837C93.0396 202.421 90.9585 200.928 89.7431 198.356L88.3162 208.553L85.2149 208.115L88.7073 183.159L91.8086 183.596L91.3795 186.662C93.2535 184.527 95.6639 183.668 98.6107 184.084ZM96.0134 199.787C97.7957 200.038 99.3777 199.644 100.759 198.602C102.144 197.538 102.963 196.102 103.216 194.296C103.469 192.489 103.074 190.894 102.032 189.511C100.993 188.104 99.5818 187.275 97.7995 187.023C95.9934 186.768 94.3979 187.173 93.0129 188.238C91.6313 189.279 90.8141 190.703 90.5613 192.509C90.3085 194.316 90.7016 195.923 91.7407 197.33C92.783 198.713 94.2073 199.532 96.0134 199.787ZM125.732 204.272C123.649 205.82 121.301 206.41 118.687 206.041C116.073 205.672 113.977 204.455 112.4 202.391C110.847 200.329 110.255 197.979 110.624 195.341C110.993 192.703 112.207 190.608 114.266 189.056C116.348 187.508 118.697 186.919 121.311 187.288C123.925 187.657 126.021 188.874 127.598 190.938C129.175 193.003 129.779 195.354 129.41 197.993C129.04 200.631 127.814 202.724 125.732 204.272ZM119.111 203.011C120.893 203.262 122.475 202.867 123.857 201.826C125.238 200.785 126.055 199.361 126.308 197.555C126.561 195.749 126.166 194.154 125.124 192.77C124.082 191.387 122.669 190.57 120.887 190.318C119.128 190.07 117.558 190.466 116.177 191.508C114.795 192.549 113.978 193.972 113.725 195.779C113.472 197.585 113.867 199.18 114.909 200.563C115.952 201.947 117.352 202.762 119.111 203.011ZM141.911 190.195C144.62 190.578 146.683 191.766 148.101 193.759C149.542 195.756 150.071 198.122 149.689 200.855C149.309 203.565 148.151 205.692 146.215 207.236C144.281 208.757 141.96 209.326 139.251 208.944C137.35 208.675 135.744 208.024 134.435 206.991C133.129 205.934 132.256 204.636 131.818 203.095L134.67 201.935C134.914 202.963 135.458 203.839 136.301 204.564C137.169 205.293 138.292 205.754 139.67 205.949C141.215 206.167 142.573 205.898 143.745 205.142C144.917 204.387 145.749 203.292 146.24 201.859L138.291 200.737L138.7 197.813L146.649 198.935C146.57 197.421 146.083 196.141 145.188 195.093C144.292 194.046 143.072 193.413 141.527 193.195C140.268 193.017 139.121 193.159 138.088 193.619C137.081 194.058 136.284 194.733 135.696 195.644L133.237 193.734C134.153 192.385 135.382 191.395 136.924 190.764C138.466 190.133 140.128 189.944 141.911 190.195ZM168.799 212.641L164.949 212.098L158.004 202.501L156.821 210.951L153.72 210.513L156.215 192.687L159.316 193.125L158.213 201.004L167.016 194.211L171.008 194.775L161.281 202.2L168.799 212.641ZM189.042 197.32L188.623 200.315L182.563 199.46L180.487 214.291L177.386 213.854L179.462 199.022L173.366 198.162L173.785 195.167L189.042 197.32ZM207.425 199.915L210.527 200.353L208.032 218.179L204.931 217.741L205.36 214.675C203.486 216.81 201.075 217.67 198.129 217.254C195.633 216.902 193.633 215.698 192.127 213.644C190.625 211.565 190.056 209.219 190.422 206.604C190.788 203.99 191.977 201.903 193.988 200.345C196.003 198.763 198.258 198.148 200.753 198.501C203.7 198.917 205.781 200.41 206.996 202.981L207.425 199.915ZM198.94 214.314C200.746 214.569 202.34 214.176 203.721 213.135C205.106 212.07 205.925 210.635 206.178 208.828C206.431 207.022 206.036 205.427 204.994 204.044C203.955 202.637 202.532 201.806 200.726 201.551C198.944 201.299 197.36 201.706 195.975 202.771C194.593 203.812 193.776 205.236 193.523 207.042C193.271 208.848 193.664 210.455 194.703 211.862C195.745 213.245 197.157 214.063 198.94 214.314ZM220.208 212.445C220.354 211.399 220.716 210.456 221.294 209.617C221.872 208.777 222.527 208.082 223.258 207.531C223.99 206.979 224.716 206.464 225.438 205.984C226.163 205.48 226.799 204.916 227.347 204.29C227.898 203.641 228.229 202.924 228.339 202.14C228.505 200.951 228.215 199.989 227.47 199.254C226.752 198.498 225.739 198.028 224.432 197.844C221.818 197.475 219.981 198.391 218.922 200.592L216.326 198.626C217.152 197.046 218.339 195.929 219.884 195.275C221.433 194.597 223.111 194.385 224.917 194.64C227.032 194.938 228.755 195.788 230.086 197.187C231.44 198.59 231.97 200.35 231.674 202.465C231.534 203.463 231.177 204.37 230.602 205.186C230.028 206.002 229.375 206.685 228.643 207.236C227.912 207.787 227.182 208.327 226.454 208.854C225.729 209.358 225.088 209.958 224.53 210.655C223.975 211.328 223.64 212.081 223.523 212.912L220.208 212.445ZM220.77 220.377C220.128 220.286 219.613 219.983 219.225 219.468C218.837 218.953 218.687 218.374 218.777 217.732C218.867 217.091 219.169 216.576 219.684 216.188C220.199 215.8 220.777 215.652 221.419 215.742C222.084 215.836 222.599 216.139 222.964 216.651C223.352 217.166 223.501 217.745 223.411 218.387C223.322 219.028 223.019 219.543 222.505 219.931C222.014 220.322 221.435 220.471 220.77 220.377Z" fill="black"/>
<defs>
<filter id="filter0_d" x="-6.10352e-05" y="0.645874" width="295.201" height="297.253" filterUnits="userSpaceOnUse" color-interpolation-filters="sRGB">
<feFlood flood-opacity="0" result="BackgroundImageFix"/>
<feColorMatrix in="SourceAlpha" type="matrix" values="0 0 0 0 0 0 0 0 0 0 0 0 0 0 0 0 0 0 127 0"/>
<feOffset dy="4"/>
<feGaussianBlur stdDeviation="5"/>
<feColorMatrix type="matrix" values="0 0 0 0 0 0 0 0 0 0 0 0 0 0 0 0 0 0 0.25 0"/>
<feBlend mode="normal" in2="BackgroundImageFix" result="effect1_dropShadow"/>
<feBlend mode="normal" in="SourceGraphic" in2="effect1_dropShadow" result="shape"/>
</filter>
</defs>
</svg>
